<svg xmlns="http://www.w3.org/2000/svg" xmlns:xlink="http://www.w3.org/1999/xlink" id="svg3591" width="16" height="16" version="1.0"><defs id="defs3593"><linearGradient id="linearGradient3738" x1="14.953" x2="14.953" y1="45.381" y2="13.214" gradientTransform="matrix(.36876 0 0 .36876 -0.851 -.85137)" gradientUnits="userSpaceOnUse"><stop id="stop5356" offset="0" stop-color="#3f3f3f"/><stop id="stop5358" offset="1"/></linearGradient><linearGradient id="linearGradient3736" x1="28.771" x2="28.771" y1="12.918" y2="45.348" gradientTransform="matrix(.36876 0 0 .36876 -0.851 -.85137)" gradientUnits="userSpaceOnUse"><stop id="stop2147" offset="0" stop-color="#fffffd"/><stop id="stop2149" offset="1" stop-color="#cbcbc9"/></linearGradient><linearGradient id="linearGradient3630" x1="63.761" x2="63.761" y1="-12.929" y2="5.972" gradientTransform="matrix(.74324 0 0 .74322 -38.23 10.609)" gradientUnits="userSpaceOnUse"><stop id="stop37937" offset="0" stop-color="#929292"/><stop id="stop37939" offset="1" stop-color="#4a4a4a"/></linearGradient><linearGradient id="linearGradient3578" x1="24.104" x2="24.104" y1="15.169" y2="32.485" gradientTransform="matrix(.32803 0 0 .32571 4.445 4.532)" gradientUnits="userSpaceOnUse"><stop id="stop3567" offset="0" stop-color="#ecf5b6"/><stop id="stop3949" offset="1" stop-color="#9fba48"/></linearGradient></defs><g id="layer1"><path id="path2555" fill="url(#linearGradient3736)" stroke="url(#linearGradient3738)" stroke-linecap="round" stroke-linejoin="round" stroke-width="1" d="m7.9941 0.49998c-4.1393 0-7.4941 3.3548-7.4941 7.4941s3.3548 7.5059 7.4941 7.5059 7.5059-3.3666 7.5059-7.5059-3.3666-7.4941-7.5059-7.4941z"/><path id="path8655" fill="none" stroke="url(#linearGradient3630)" d="m14.5 7.9998c0 3.5902-2.91 6.5002-6.4999 6.5002s-6.5001-2.91-6.5001-6.5002c0-3.5898 2.9102-6.4998 6.5001-6.4998s6.4999 2.91 6.4999 6.4998z" opacity=".527"/><path id="path2312" fill="none" stroke="#000" stroke-linecap="round" stroke-width=".5" d="m7.6741 8.4713 4.7109-4.7111"/><path id="path2314" fill="none" stroke="#000" stroke-linecap="round" stroke-width=".5" d="m8.4391 8.5061-3.1466-3.1465"/><path id="path2316" fill="red" fill-rule="evenodd" stroke="red" stroke-linecap="round" stroke-width=".5" d="m7.7785 8.228 5.3645-1.4375"/><path id="path2262" fill="url(#linearGradient3578)" fill-rule="evenodd" stroke="#699536" stroke-linejoin="round" stroke-width="1.015" d="m10.5 10.5v-1.9925h3v1.9925h1.9925v3h-1.9925v1.9925h-3v-1.9925h-1.9925v-3h1.9925z"/></g></svg>