<svg xmlns="http://www.w3.org/2000/svg" xmlns:xlink="http://www.w3.org/1999/xlink" id="svg7324" width="16" height="16" version="1.1"><defs id="defs7326"><radialGradient id="radialGradient2926" cx="12.244" cy="4.863" r="21" gradientTransform="matrix(.53972 .0071397 -.0050252 .39911 -.67163 -.28602)" gradientUnits="userSpaceOnUse"><stop id="stop6562" offset="0" stop-color="#5a5a5a"/><stop id="stop6564" offset="1" stop-color="#323232"/></radialGradient><linearGradient id="linearGradient2928" x1="24.875" x2="25" y1="29" y2="3" gradientTransform="matrix(.39024 0 0 0.4 1.1342 -1.9)" gradientUnits="userSpaceOnUse"><stop id="stop6570" offset="0" stop-color="#0a0a0a"/><stop id="stop6572" offset="1" stop-color="#1e1e1e"/></linearGradient><linearGradient id="linearGradient2931" x1="20.147" x2="20.104" y1="0" y2="31.983" gradientTransform="matrix(.42622 0 0 .45209 .27049 -2.733)" gradientUnits="userSpaceOnUse"><stop id="stop6546" offset="0" stop-color="#f0f0f0"/><stop id="stop6548" offset="1" stop-color="#d2d2d2"/></linearGradient><linearGradient id="linearGradient3028" x1="321.58" x2="321.58" y1="86.05" y2="96.245" gradientTransform="matrix(.41035 0 0 .51289 -121.96 -32.968)" gradientUnits="userSpaceOnUse"><stop id="stop3271" offset="0" stop-color="#787878"/><stop id="stop3273" offset=".344" stop-color="#bebebe"/><stop id="stop3275" offset=".373" stop-color="#c8c8c8"/><stop id="stop3277" offset=".49" stop-color="#e6e6e6"/><stop id="stop3279" offset="1" stop-color="#8c8c8c"/></linearGradient><linearGradient id="linearGradient3030" x1="22.452" x2="22.452" y1="30.05" y2="40.186" gradientTransform="matrix(.41182 0 0 .51282 -.51999 -4.2433)" gradientUnits="userSpaceOnUse"><stop id="stop3259" offset="0" stop-color="#282828"/><stop id="stop3261" offset=".348" stop-color="#787878"/><stop id="stop3263" offset=".366" stop-color="#828282"/><stop id="stop3265" offset=".494" stop-color="#aaa"/><stop id="stop3267" offset="1" stop-color="#464646"/></linearGradient></defs><path id="path4675" fill="url(#linearGradient3028)" stroke="url(#linearGradient3030)" stroke-dashoffset=".5" stroke-linecap="round" stroke-linejoin="round" stroke-width=".998" d="m7.4362 9.346l-1.5004 3.59c-0.00907 0.92422-1.1517 1.5389-1.1517 1.5389-0.30832 0.04535-0.26136 0.22875-0.26136 0.5129 0 0.28414 0.00729 0.51289 0.26136 0.51289l6.6187 0.000137c0.25408 0 0.162-0.22886 0.162-0.513s0.14632-0.46765-0.162-0.513c0 0-1.3939-0.61439-1.403-1.5386l0.5-3.5903h-3.0636z" enable-background="new"/><rect id="rect2722" width="14.927" height="12.019" x=".532" y=".522" fill="url(#linearGradient2931)" stroke="#969696" stroke-dashoffset=".5" stroke-linecap="round" stroke-linejoin="round" rx=".5" ry=".5"/><rect id="rect2716" width="10.898" height="7.954" x="2.485" y="2.53" fill="url(#radialGradient2926)" fill-rule="evenodd" stroke="url(#linearGradient2928)" enable-background="new"/><path id="path2086" fill="#fff" d="m7.8125 3.001c-1.2854 0.0386-1.8125 0.6301-1.8125 1.8502v1.1488h-0.6143c-0.2122 0-0.3857 0.2468-0.3857 0.422v3.2629c0 0.17522 0.17346 0.31513 0.38571 0.31513h5.2339c0.212 0 0.38-0.1399 0.38-0.3151v-3.2629c0-0.1752-0.168-0.422-0.38-0.422h-0.62l0.005-1.1285c0-1.2951-0.60001-1.8545-2-1.8705-0.065271-0.0007498-0.12964-0.0019-0.19286 0h-0.000042zm0.12857 0.81832c0.023636-0.0005094 0.050588 0.00117 0.075 0 1.2525-0.0601 0.961 1.0574 0.9839 1.3724v0.8083h-2v-0.8032c-0.0055-0.3126-0.2472-1.3453 0.9411-1.3774z" display="block" opacity=".8"/></svg>