<svg xmlns="http://www.w3.org/2000/svg" xmlns:svg="http://www.w3.org/2000/svg" id="svg3196" width="16" height="16" version="1.0"><rect id="rect2388" width="15.09" height="11" x="-15.59" y=".5" fill="none" stroke="#606060" stroke-dasharray="none" stroke-dashoffset="0" stroke-linecap="square" stroke-linejoin="miter" stroke-miterlimit="4" stroke-opacity="1" stroke-width="1" display="inline" enable-background="accumulate" overflow="visible" rx="1.39" ry="1.515" transform="matrix(0,-1,1,0,0,0)" visibility="visible" style="marker:none"/><path id="path3593" fill="none" stroke="#606060" stroke-dasharray="none" stroke-linecap="round" stroke-linejoin="miter" stroke-miterlimit="4" stroke-opacity="1" stroke-width="2" d="m 5.9998875,6 0,0"/><path id="path2820" fill="none" stroke="#606060" stroke-dasharray="none" stroke-linecap="round" stroke-linejoin="round" stroke-miterlimit="4" stroke-opacity="1" stroke-width="1" d="m 8.4915345,6.0000001 a 2.491647,2.4916467 0 1 1 -4.9832937,0 2.491647,2.4916467 0 1 1 4.9832937,0 z" opacity=".4"/><path id="path3594" fill="none" stroke="#606060" stroke-dasharray="none" stroke-linecap="round" stroke-linejoin="round" stroke-miterlimit="4" stroke-opacity="1" stroke-width="1" d="m 7.5000295,12.000452 a 1.5001421,1.5001421 0 1 1 -3.000284,0 1.5001421,1.5001421 0 1 1 3.000284,0 z"/><path id="path3621" fill="none" stroke="#606060" stroke-dasharray="none" stroke-linecap="round" stroke-linejoin="round" stroke-miterlimit="4" stroke-opacity="1" stroke-width="1" d="m 9.489526,6.0105061 a 3.5001457,3.5001458 0 1 1 -7.0002905,0 3.5001457,3.5001458 0 1 1 7.0002905,0 z"/><path id="path3622" fill="#606060" fill-opacity="1" stroke="#606060" stroke-linecap="round" stroke-linejoin="round" stroke-opacity="1" stroke-width="1" d="m 13.5,4.5 0,-4 2,2 -2,2 z"/></svg>