<svg xmlns="http://www.w3.org/2000/svg" xmlns:xlink="http://www.w3.org/1999/xlink" id="svg2" width="16" height="16" version="1.0"><defs id="defs4"><linearGradient id="linearGradient2990" x1="25.132" x2="25.132" y1="6.729" y2="47.013" gradientTransform="matrix(.51431 0 0 .46669 -4.8439 -8.1996)" gradientUnits="userSpaceOnUse"><stop id="stop3602" offset="0" stop-color="#f4f4f4"/><stop id="stop3604" offset="1" stop-color="#dbdbdb"/></linearGradient><linearGradient id="linearGradient2992" x1="-56.333" x2="-47.636" y1="17.518" y2="-.101" gradientTransform="matrix(.41530 0 0 .43675 25.711 -8.7197)" gradientUnits="userSpaceOnUse"><stop id="stop3933" offset="0" stop-color="#787a75"/><stop id="stop3935" offset="1" stop-color="#cbcbcb"/></linearGradient><linearGradient id="linearGradient2906" x1="25.132" x2="25.132" y1="6.729" y2="47.013" gradientTransform="matrix(.51431 0 0 .46669 -6.8439 -10.2)" gradientUnits="userSpaceOnUse"><stop id="stop3620" offset="0" stop-color="#a68b60"/><stop id="stop3622" offset="1" stop-color="#9b784b"/></linearGradient><linearGradient id="linearGradient2933" x1="321.58" x2="321.58" y1="86.05" y2="96.245" gradientTransform="matrix(.41035 0 0 .51289 -122.99 -43.965)" gradientUnits="userSpaceOnUse"><stop id="stop3271" offset="0" stop-color="#787878"/><stop id="stop3273" offset=".344" stop-color="#bebebe"/><stop id="stop3275" offset=".373" stop-color="#c8c8c8"/><stop id="stop3277" offset=".49" stop-color="#e6e6e6"/><stop id="stop3279" offset="1" stop-color="#8c8c8c"/></linearGradient><linearGradient id="linearGradient2935" x1="22.452" x2="22.452" y1="30.05" y2="40.186" gradientTransform="matrix(.41182 0 0 .51282 -1.5506 -15.24)" gradientUnits="userSpaceOnUse"><stop id="stop3261" offset="0" stop-color="#787878"/><stop id="stop3263" offset=".366" stop-color="#828282"/><stop id="stop3267" offset="1" stop-color="#464646"/></linearGradient></defs><path id="path2904" fill="url(#linearGradient2906)" stroke="#9d7d53" stroke-linejoin="round" stroke-width=".999" d="m1.4996 2.5009h13v13h-13l-0.0004305-13z"/><path id="path3624" fill="none" stroke="#fff" stroke-linejoin="round" stroke-width=".999" d="m2.4996 3.5009h11v11h-11v-11z" opacity=".2"/><path id="rect2594" fill="url(#linearGradient2990)" stroke="url(#linearGradient2992)" stroke-linejoin="round" stroke-width=".999" d="m3.4996 3.5004h9.0004v9h-9.0004v-9z"/><path id="path4675" fill="url(#linearGradient2933)" stroke="url(#linearGradient2935)" stroke-dashoffset=".5" stroke-linecap="round" stroke-linejoin="round" stroke-width=".998" d="m6.4991 0.50086c0.052927 1.8402-0.049158 2.9464-1 2.9773v1.0258h5v-1.0258c-1.0779-0.0233-0.9759-1.1425-0.9999-2.9773h-3z" enable-background="new"/><path id="text2315" fill="#1f4b6a" d="m7 9h2v-3h-2v3zm0 2h2v-1h-2v1z"/></svg>