<svg xmlns="http://www.w3.org/2000/svg" id="svg2" width="16" height="16" version="1.0"><g id="g2829" transform="translate(-3 -4)"><path id="path3629" fill="none" stroke="#606060" stroke-linecap="square" stroke-linejoin="round" d="m12.774 11.492 2.933-0.000008 1.393 6.008h-12.1l1.375-6.008h2.933" opacity=".4"/><path id="rect3170" fill="none" stroke="#606060" stroke-linecap="square" stroke-linejoin="round" d="m12.774 10.492h3.7331l2 8.008h-14.932l2-8.008h3.7331"/><path id="path3172" fill="none" stroke="#606060" d="m11 5v8.5" opacity=".4"/><path id="path3176" fill="none" stroke="#606060" stroke-width="1" d="m13 7.4995h2c2 0.5 2-2.5 0-2h-8c-2-0.5-2 2.5 0 2h2"/><path id="path3600" fill="none" stroke="#606060" d="m9.5 5v8.5001h3v-8.5001"/><path id="path3602" fill="none" stroke="#606060" d="m6 6.4995h4" opacity=".6"/><path id="path3604" fill="none" stroke="#606060" d="m8 14 3 1.5 3-1.5h-6z" opacity=".9"/><path id="path3627" fill="none" stroke="#606060" d="m12 6.4995h4" opacity=".6"/><path id="path3631" fill="none" stroke="#606060" stroke-linecap="square" stroke-linejoin="round" d="m12.774 10.492h3.7331l2 9.008h-14.932l2-9.008h3.7331"/></g></svg>