<svg xmlns="http://www.w3.org/2000/svg" xmlns:svg="http://www.w3.org/2000/svg" xmlns:xlink="http://www.w3.org/1999/xlink" id="svg5577" width="16" height="16" version="1.1"><defs id="defs5579"><linearGradient id="linearGradient4506" x1="168" x2="176" y1="1008.362" y2="1008.362" gradientUnits="userSpaceOnUse" xlink:href="#linearGradient5107"/><linearGradient id="linearGradient5107"><stop id="stop5109" offset="0" stop-color="#277c33" stop-opacity="1"/><stop id="stop5111" offset="1" stop-color="#5ecd6e" stop-opacity="1"/></linearGradient><linearGradient id="linearGradient4508" x1="492.76" x2="492.76" y1="1003.491" y2="1010.464" gradientUnits="userSpaceOnUse" xlink:href="#linearGradient4241"/><linearGradient id="linearGradient4241"><stop id="stop4243" offset="0" stop-color="#fff" stop-opacity="1"/><stop id="stop4245" offset="1" stop-color="#fff" stop-opacity="0"/></linearGradient><linearGradient id="linearGradient5575" x1="492.76" x2="492.76" y1="1003.491" y2="1010.464" gradientUnits="userSpaceOnUse" xlink:href="#linearGradient4241"/><linearGradient id="linearGradient3122" x1="168" x2="176" y1="1008.362" y2="1008.362" gradientUnits="userSpaceOnUse" xlink:href="#linearGradient5107"/><linearGradient id="linearGradient3124" x1="492.76" x2="492.76" y1="1003.491" y2="1010.464" gradientUnits="userSpaceOnUse" xlink:href="#linearGradient4241"/></defs><metadata id="metadata5582"/><g id="layer1" transform="translate(0,-1036.3622)"><g id="g3114" transform="translate(-4,4)"><path id="path5051" fill="#000" fill-opacity="1" fill-rule="nonzero" stroke="none" stroke-width="2" d="m 176,1008.3622 c 0,2.2091 -1.79086,4 -4,4 -2.20914,0 -4,-1.7909 -4,-4 0,-2.2092 1.79086,-4 4,-4 2.20914,0 4,1.7908 4,4 z" color="#000" display="inline" enable-background="accumulate" opacity=".05" overflow="visible" transform="matrix(1.75,0,0,1.75,-289,-724.27162)" visibility="visible" style="marker:none"/><path id="path5053" fill="#000" fill-opacity="1" fill-rule="nonzero" stroke="none" stroke-width="2" d="m 176,1008.3622 c 0,2.2091 -1.79086,4 -4,4 -2.20914,0 -4,-1.7909 -4,-4 0,-2.2092 1.79086,-4 4,-4 2.20914,0 4,1.7908 4,4 z" color="#000" display="inline" enable-background="accumulate" opacity=".2" overflow="visible" transform="matrix(0,-1.5,1.5,0,-1500.5433,1299.3622)" visibility="visible" style="marker:none"/><path id="path5055" fill="url(#linearGradient3122)" fill-opacity="1" fill-rule="nonzero" stroke="none" stroke-width="2" d="m 176,1008.3622 c 0,2.2091 -1.79086,4 -4,4 -2.20914,0 -4,-1.7909 -4,-4 0,-2.2092 1.79086,-4 4,-4 2.20914,0 4,1.7908 4,4 z" color="#000" display="inline" enable-background="accumulate" overflow="visible" transform="matrix(0,1.5,1.5,0,-1500.5433,782.36222)" visibility="visible" style="marker:none"/><path id="path5057" fill="#000" fill-opacity="1" fill-rule="nonzero" stroke="none" stroke-width="2" d="m 18,1040.375 c 0,3.3137 -2.6863,6 -6,6 -3.3137,0 -6,-2.6863 -6,-6 0,-3.3137 2.6863,-6 6,-6 3.3137,0 6,2.6863 6,6 z m -1,0.5 c 0.017,-0.1681 0,-0.3274 0,-0.5 0,-2.7614 -2.2386,-5 -5,-5 -2.7614,0 -5,2.2386 -5,5 0,2.7614 2.2386,5 5,5 2.5888,0 4.7439,-1.9787 5,-4.5 z" color="#000" display="inline" enable-background="accumulate" opacity=".3" overflow="visible" visibility="visible" style="marker:none"/><path id="path5113" fill="#fff" fill-opacity="1" fill-rule="nonzero" stroke="none" stroke-width="2" d="m 7.03125,1039.875 c -0.0152,0.1585 -0.0312,0.3375 -0.0312,0.5 0,2.7614 2.23858,5 5,5 2.76142,0 5,-2.2386 5,-5 0,-0.1625 -0.0161,-0.3415 -0.0312,-0.5 -0.25605,2.5213 -2.37992,4.5 -4.96875,4.5 -2.58883,0 -4.7127,-1.9787 -4.96875,-4.5 z" color="#000" display="inline" enable-background="accumulate" opacity=".2" overflow="visible" visibility="visible" style="marker:none"/><path id="path5118" fill="url(#linearGradient3124)" fill-opacity="1" fill-rule="nonzero" stroke="none" stroke-width="2" d="m 497,1006.3622 c 0,1.6568 -2.23858,3 -5,3 -2.76142,0 -5,-1.3432 -5,-3 0,-1.6569 2.23858,-3 5,-3 2.76142,0 5,1.3431 5,3 z" color="#000" display="inline" enable-background="accumulate" opacity=".8" overflow="visible" transform="matrix(0.70852063,0,0,0.83333333,-336.59215,199.22705)" visibility="visible" style="marker:none"/></g></g></svg>