<svg xmlns="http://www.w3.org/2000/svg" xmlns:svg="http://www.w3.org/2000/svg" xmlns:xlink="http://www.w3.org/1999/xlink" id="svg2383" width="1920" height="1080" version="1.0"><defs id="defs2385"><linearGradient id="linearGradient3264"><stop id="stop3266" offset="0" stop-color="#6f82c1" stop-opacity="1"/><stop id="stop3268" offset="1" stop-color="#324da7" stop-opacity="1"/></linearGradient><linearGradient id="linearGradient3190"><stop id="stop3192" offset="0" stop-color="#324da7" stop-opacity="1"/><stop id="stop3194" offset="1" stop-color="#324da7" stop-opacity="0"/></linearGradient><linearGradient id="linearGradient3267"><stop id="stop3269" offset="0" stop-color="#00f" stop-opacity="0"/><stop id="stop3275" offset=".488" stop-color="#fff" stop-opacity="1"/><stop id="stop3271" offset="1" stop-color="#00f" stop-opacity="0"/></linearGradient><linearGradient id="linearGradient3273" x1="333.266" x2="1668.856" y1="671.267" y2="671.267" gradientTransform="matrix(0.4475832,0,0,1.1594093,-317.72844,-354.23847)" gradientUnits="userSpaceOnUse" xlink:href="#linearGradient3267"/><linearGradient id="linearGradient3463" x1="333.266" x2="1668.856" y1="671.267" y2="671.267" gradientTransform="matrix(0.4475832,0,0,1.1594093,-317.72845,-255.93349)" gradientUnits="userSpaceOnUse" xlink:href="#linearGradient3267"/><linearGradient id="linearGradient3196" x1="1917.672" x2="1622.826" y1="542.599" y2="542.599" gradientTransform="translate(-480.00173,0)" gradientUnits="userSpaceOnUse" xlink:href="#linearGradient3190"/><linearGradient id="linearGradient3200" x1="1917.672" x2="1622.826" y1="542.599" y2="542.599" gradientTransform="matrix(-1,0,0,1,1920.0025,7.77e-2)" gradientUnits="userSpaceOnUse" xlink:href="#linearGradient3190"/><radialGradient id="radialGradient3270" cx="141.421" cy="172.075" r="73.539" fx="141.421" fy="172.075" gradientUnits="userSpaceOnUse" xlink:href="#linearGradient3264"/><radialGradient id="radialGradient3287" cx="141.421" cy="172.075" r="73.539" fx="141.421" fy="172.075" gradientUnits="userSpaceOnUse" xlink:href="#linearGradient3264"/><radialGradient id="radialGradient3297" cx="141.421" cy="172.075" r="73.539" fx="141.421" fy="172.075" gradientUnits="userSpaceOnUse" xlink:href="#linearGradient3264"/><radialGradient id="radialGradient3307" cx="141.421" cy="172.075" r="73.539" fx="141.421" fy="172.075" gradientUnits="userSpaceOnUse" xlink:href="#linearGradient3264"/><radialGradient id="radialGradient3317" cx="141.421" cy="172.075" r="73.539" fx="141.421" fy="172.075" gradientUnits="userSpaceOnUse" xlink:href="#linearGradient3264"/><radialGradient id="radialGradient3327" cx="141.421" cy="172.075" r="73.539" fx="141.421" fy="172.075" gradientUnits="userSpaceOnUse" xlink:href="#linearGradient3264"/><radialGradient id="radialGradient3337" cx="141.421" cy="172.075" r="73.539" fx="141.421" fy="172.075" gradientUnits="userSpaceOnUse" xlink:href="#linearGradient3264"/><radialGradient id="radialGradient3347" cx="141.421" cy="172.075" r="73.539" fx="141.421" fy="172.075" gradientUnits="userSpaceOnUse" xlink:href="#linearGradient3264"/><radialGradient id="radialGradient3357" cx="141.421" cy="172.075" r="73.539" fx="141.421" fy="172.075" gradientUnits="userSpaceOnUse" xlink:href="#linearGradient3264"/><radialGradient id="radialGradient3367" cx="141.421" cy="172.075" r="73.539" fx="141.421" fy="172.075" gradientUnits="userSpaceOnUse" xlink:href="#linearGradient3264"/><radialGradient id="radialGradient3377" cx="141.421" cy="172.075" r="73.539" fx="141.421" fy="172.075" gradientUnits="userSpaceOnUse" xlink:href="#linearGradient3264"/><radialGradient id="radialGradient3387" cx="141.421" cy="172.075" r="73.539" fx="141.421" fy="172.075" gradientUnits="userSpaceOnUse" xlink:href="#linearGradient3264"/><radialGradient id="radialGradient3397" cx="141.421" cy="172.075" r="73.539" fx="141.421" fy="172.075" gradientUnits="userSpaceOnUse" xlink:href="#linearGradient3264"/><radialGradient id="radialGradient3407" cx="141.421" cy="172.075" r="73.539" fx="141.421" fy="172.075" gradientUnits="userSpaceOnUse" xlink:href="#linearGradient3264"/><radialGradient id="radialGradient3417" cx="141.421" cy="172.075" r="73.539" fx="141.421" fy="172.075" gradientUnits="userSpaceOnUse" xlink:href="#linearGradient3264"/><radialGradient id="radialGradient3427" cx="141.421" cy="172.075" r="73.539" fx="141.421" fy="172.075" gradientUnits="userSpaceOnUse" xlink:href="#linearGradient3264"/><radialGradient id="radialGradient3437" cx="141.421" cy="172.075" r="73.539" fx="141.421" fy="172.075" gradientUnits="userSpaceOnUse" xlink:href="#linearGradient3264"/><radialGradient id="radialGradient3447" cx="141.421" cy="172.075" r="73.539" fx="141.421" fy="172.075" gradientUnits="userSpaceOnUse" xlink:href="#linearGradient3264"/><radialGradient id="radialGradient3457" cx="141.421" cy="172.075" r="73.539" fx="141.421" fy="172.075" gradientUnits="userSpaceOnUse" xlink:href="#linearGradient3264"/><radialGradient id="radialGradient3467" cx="141.421" cy="172.075" r="73.539" fx="141.421" fy="172.075" gradientUnits="userSpaceOnUse" xlink:href="#linearGradient3264"/><radialGradient id="radialGradient3477" cx="141.421" cy="172.075" r="73.539" fx="141.421" fy="172.075" gradientUnits="userSpaceOnUse" xlink:href="#linearGradient3264"/><radialGradient id="radialGradient3487" cx="141.421" cy="172.075" r="73.539" fx="141.421" fy="172.075" gradientUnits="userSpaceOnUse" xlink:href="#linearGradient3264"/><radialGradient id="radialGradient3497" cx="141.421" cy="172.075" r="73.539" fx="141.421" fy="172.075" gradientUnits="userSpaceOnUse" xlink:href="#linearGradient3264"/><radialGradient id="radialGradient3507" cx="141.421" cy="172.075" r="73.539" fx="141.421" fy="172.075" gradientUnits="userSpaceOnUse" xlink:href="#linearGradient3264"/><radialGradient id="radialGradient3517" cx="141.421" cy="172.075" r="73.539" fx="141.421" fy="172.075" gradientUnits="userSpaceOnUse" xlink:href="#linearGradient3264"/><radialGradient id="radialGradient3527" cx="141.421" cy="172.075" r="73.539" fx="141.421" fy="172.075" gradientUnits="userSpaceOnUse" xlink:href="#linearGradient3264"/><radialGradient id="radialGradient3537" cx="141.421" cy="172.075" r="73.539" fx="141.421" fy="172.075" gradientUnits="userSpaceOnUse" xlink:href="#linearGradient3264"/><radialGradient id="radialGradient3547" cx="141.421" cy="172.075" r="73.539" fx="141.421" fy="172.075" gradientUnits="userSpaceOnUse" xlink:href="#linearGradient3264"/><radialGradient id="radialGradient3557" cx="141.421" cy="172.075" r="73.539" fx="141.421" fy="172.075" gradientUnits="userSpaceOnUse" xlink:href="#linearGradient3264"/><radialGradient id="radialGradient3567" cx="141.421" cy="172.075" r="73.539" fx="141.421" fy="172.075" gradientUnits="userSpaceOnUse" xlink:href="#linearGradient3264"/><radialGradient id="radialGradient3577" cx="141.421" cy="172.075" r="73.539" fx="141.421" fy="172.075" gradientUnits="userSpaceOnUse" xlink:href="#linearGradient3264"/><radialGradient id="radialGradient3587" cx="141.421" cy="172.075" r="73.539" fx="141.421" fy="172.075" gradientUnits="userSpaceOnUse" xlink:href="#linearGradient3264"/><radialGradient id="radialGradient3597" cx="141.421" cy="172.075" r="73.539" fx="141.421" fy="172.075" gradientUnits="userSpaceOnUse" xlink:href="#linearGradient3264"/><radialGradient id="radialGradient3607" cx="141.421" cy="172.075" r="73.539" fx="141.421" fy="172.075" gradientUnits="userSpaceOnUse" xlink:href="#linearGradient3264"/><radialGradient id="radialGradient3617" cx="141.421" cy="172.075" r="73.539" fx="141.421" fy="172.075" gradientUnits="userSpaceOnUse" xlink:href="#linearGradient3264"/><radialGradient id="radialGradient3627" cx="141.421" cy="172.075" r="73.539" fx="141.421" fy="172.075" gradientUnits="userSpaceOnUse" xlink:href="#linearGradient3264"/><radialGradient id="radialGradient3637" cx="141.421" cy="172.075" r="73.539" fx="141.421" fy="172.075" gradientUnits="userSpaceOnUse" xlink:href="#linearGradient3264"/><radialGradient id="radialGradient3647" cx="141.421" cy="172.075" r="73.539" fx="141.421" fy="172.075" gradientUnits="userSpaceOnUse" xlink:href="#linearGradient3264"/><radialGradient id="radialGradient3657" cx="141.421" cy="172.075" r="73.539" fx="141.421" fy="172.075" gradientUnits="userSpaceOnUse" xlink:href="#linearGradient3264"/><radialGradient id="radialGradient2604" cx="141.421" cy="172.075" r="73.539" fx="141.421" fy="172.075" gradientUnits="userSpaceOnUse" xlink:href="#linearGradient3264"/><radialGradient id="radialGradient2614" cx="141.421" cy="172.075" r="73.539" fx="141.421" fy="172.075" gradientUnits="userSpaceOnUse" xlink:href="#linearGradient3264"/><radialGradient id="radialGradient2624" cx="141.421" cy="172.075" r="73.539" fx="141.421" fy="172.075" gradientUnits="userSpaceOnUse" xlink:href="#linearGradient3264"/></defs><metadata id="metadata2388"/><g id="layer1" transform="translate(1.9328e-3,0)"><rect id="rect3160" width="1926" height="1080.005" x="-.002" y="-.005" fill="#e0e7ff" fill-opacity="1" stroke="none" stroke-dasharray="none" stroke-miterlimit="4" stroke-opacity="1" stroke-width="1" opacity="0" rx="0" ry="0"/><g id="g2399" transform="translate(239.99807,-6.3155368e-3)"><text stroke-opacity="1" style="line-height:0%;-inkscape-font-specification:'Bitstream Vera Sans';text-align:center" id="text2395" x="722.82" y="532.013" fill="#324da7" fill-opacity="1" stroke="none" stroke-dasharray="none" stroke-dashoffset="0" stroke-linecap="butt" stroke-linejoin="miter" stroke-miterlimit="4" stroke-width="3.75" font-family="Bitstream Vera Sans" font-stretch="normal" font-style="normal" font-variant="normal" font-weight="normal" text-anchor="middle" writing-mode="lr-tb" xml:space="preserve"><tspan id="tspan2397" x="722.82" y="532.013" fill="#324da7" fill-opacity="1" stroke="none" stroke-dasharray="none" stroke-miterlimit="4" stroke-opacity="1" stroke-width="3.75" font-family="Bitstream Vera Sans" font-size="131.251" font-stretch="normal" font-style="normal" font-variant="normal" font-weight="bold" text-anchor="middle" writing-mode="lr-tb" style="line-height:125%;-inkscape-font-specification:'Bitstream Vera Sans Bold';text-align:center">The Title</tspan></text><text stroke-opacity="1" style="line-height:0%;-inkscape-font-specification:'Bitstream Vera Sans';text-align:center" id="text3161" x="719.027" y="647.036" fill="#6f82c1" fill-opacity="1" stroke="none" stroke-dasharray="none" stroke-dashoffset="0" stroke-linecap="butt" stroke-linejoin="miter" stroke-miterlimit="4" stroke-width="2.813" font-family="Bitstream Vera Sans" font-stretch="normal" font-style="normal" font-variant="normal" font-weight="normal" text-anchor="middle" writing-mode="lr-tb" xml:space="preserve"><tspan id="tspan3163" x="719.027" y="647.036" fill="#6f82c1" fill-opacity="1" stroke="none" stroke-dasharray="none" stroke-miterlimit="4" stroke-opacity="1" stroke-width="2.813" font-family="Bitstream Vera Sans" font-size="81.327" font-stretch="normal" font-style="normal" font-variant="normal" font-weight="bold" text-anchor="middle" writing-mode="lr-tb" style="line-height:125%;-inkscape-font-specification:'Bitstream Vera Sans Bold';text-align:center">Sub-Title</tspan></text></g><g id="g3274" opacity=".692" transform="translate(-36,-34)"><path id="path2490" fill="url(#radialGradient3270)" fill-opacity="1" stroke="none" stroke-dasharray="none" stroke-miterlimit="4" stroke-opacity="1" stroke-width="1.5" d="M 214.96046,172.07489 A 73.539108,73.539108 0 0 1 141.42136,245.614 73.539108,73.539108 0 0 1 67.882248,172.07489 73.539108,73.539108 0 0 1 141.42136,98.535782 73.539108,73.539108 0 0 1 214.96046,172.07489 Z" opacity=".55" transform="translate(-1.9328e-3,0)"/><path id="path2492" fill="#fff" fill-opacity=".761" stroke="none" stroke-dasharray="none" stroke-miterlimit="4" stroke-opacity="1" stroke-width="1.5" d="m 172.53406,172.07489 a 39.59798,39.59798 0 0 1 -39.59798,39.59798 39.59798,39.59798 0 0 1 -39.59798,-39.59798 39.59798,39.59798 0 0 1 39.59798,-39.59798 39.59798,39.59798 0 0 1 39.59798,39.59798 z" opacity=".479" transform="matrix(0.6857754,0.3834829,-0.4749959,0.8494263,105.11994,-50.171047)"/><path id="path3272" fill="#fff" fill-opacity=".761" stroke="none" stroke-dasharray="none" stroke-miterlimit="4" stroke-opacity="1" stroke-width="1.5" d="m 172.53406,172.07489 a 39.59798,39.59798 0 0 1 -39.59798,39.59798 39.59798,39.59798 0 0 1 -39.59798,-39.59798 39.59798,39.59798 0 0 1 39.59798,-39.59798 39.59798,39.59798 0 0 1 39.59798,39.59798 z" opacity="1" transform="matrix(0.3328355,0.1861203,-0.2305354,0.4122621,104.42157,39.321787)"/></g><g id="g3279" transform="translate(290.57864,-22.074892)"><path id="path3281" fill="url(#radialGradient3287)" fill-opacity="1" stroke="none" stroke-dasharray="none" stroke-miterlimit="4" stroke-opacity="1" stroke-width="1.5" d="M 214.96046,172.07489 A 73.539108,73.539108 0 0 1 141.42136,245.614 73.539108,73.539108 0 0 1 67.882248,172.07489 73.539108,73.539108 0 0 1 141.42136,98.535782 73.539108,73.539108 0 0 1 214.96046,172.07489 Z" opacity=".55" transform="translate(-1.9328e-3,0)"/><path id="path3283" fill="#fff" fill-opacity=".761" stroke="none" stroke-dasharray="none" stroke-miterlimit="4" stroke-opacity="1" stroke-width="1.5" d="m 172.53406,172.07489 a 39.59798,39.59798 0 0 1 -39.59798,39.59798 39.59798,39.59798 0 0 1 -39.59798,-39.59798 39.59798,39.59798 0 0 1 39.59798,-39.59798 39.59798,39.59798 0 0 1 39.59798,39.59798 z" opacity=".479" transform="matrix(0.6857754,0.3834829,-0.4749959,0.8494263,105.11994,-50.171047)"/><path id="path3285" fill="#fff" fill-opacity=".761" stroke="none" stroke-dasharray="none" stroke-miterlimit="4" stroke-opacity="1" stroke-width="1.5" d="m 172.53406,172.07489 a 39.59798,39.59798 0 0 1 -39.59798,39.59798 39.59798,39.59798 0 0 1 -39.59798,-39.59798 39.59798,39.59798 0 0 1 39.59798,-39.59798 39.59798,39.59798 0 0 1 39.59798,39.59798 z" opacity="1" transform="matrix(0.3328355,0.1861203,-0.2305354,0.4122621,104.42157,39.321787)"/></g><g id="g3289" opacity=".804" transform="translate(256.57864,192.92511)"><path id="path3291" fill="url(#radialGradient3297)" fill-opacity="1" stroke="none" stroke-dasharray="none" stroke-miterlimit="4" stroke-opacity="1" stroke-width="1.5" d="M 214.96046,172.07489 A 73.539108,73.539108 0 0 1 141.42136,245.614 73.539108,73.539108 0 0 1 67.882248,172.07489 73.539108,73.539108 0 0 1 141.42136,98.535782 73.539108,73.539108 0 0 1 214.96046,172.07489 Z" opacity=".55" transform="translate(-1.9328e-3,0)"/><path id="path3293" fill="#fff" fill-opacity=".761" stroke="none" stroke-dasharray="none" stroke-miterlimit="4" stroke-opacity="1" stroke-width="1.5" d="m 172.53406,172.07489 a 39.59798,39.59798 0 0 1 -39.59798,39.59798 39.59798,39.59798 0 0 1 -39.59798,-39.59798 39.59798,39.59798 0 0 1 39.59798,-39.59798 39.59798,39.59798 0 0 1 39.59798,39.59798 z" opacity=".479" transform="matrix(0.6857754,0.3834829,-0.4749959,0.8494263,105.11994,-50.171047)"/><path id="path3295" fill="#fff" fill-opacity=".761" stroke="none" stroke-dasharray="none" stroke-miterlimit="4" stroke-opacity="1" stroke-width="1.5" d="m 172.53406,172.07489 a 39.59798,39.59798 0 0 1 -39.59798,39.59798 39.59798,39.59798 0 0 1 -39.59798,-39.59798 39.59798,39.59798 0 0 1 39.59798,-39.59798 39.59798,39.59798 0 0 1 39.59798,39.59798 z" opacity="1" transform="matrix(0.3328355,0.1861203,-0.2305354,0.4122621,104.42157,39.321787)"/></g><g id="g3299" opacity=".629" transform="translate(654.57865,-93.074893)"><path id="path3301" fill="url(#radialGradient3307)" fill-opacity="1" stroke="none" stroke-dasharray="none" stroke-miterlimit="4" stroke-opacity="1" stroke-width="1.5" d="M 214.96046,172.07489 A 73.539108,73.539108 0 0 1 141.42136,245.614 73.539108,73.539108 0 0 1 67.882248,172.07489 73.539108,73.539108 0 0 1 141.42136,98.535782 73.539108,73.539108 0 0 1 214.96046,172.07489 Z" opacity=".55" transform="translate(-1.9328e-3,0)"/><path id="path3303" fill="#fff" fill-opacity=".761" stroke="none" stroke-dasharray="none" stroke-miterlimit="4" stroke-opacity="1" stroke-width="1.5" d="m 172.53406,172.07489 a 39.59798,39.59798 0 0 1 -39.59798,39.59798 39.59798,39.59798 0 0 1 -39.59798,-39.59798 39.59798,39.59798 0 0 1 39.59798,-39.59798 39.59798,39.59798 0 0 1 39.59798,39.59798 z" opacity=".479" transform="matrix(0.6857754,0.3834829,-0.4749959,0.8494263,105.11994,-50.171047)"/><path id="path3305" fill="#fff" fill-opacity=".761" stroke="none" stroke-dasharray="none" stroke-miterlimit="4" stroke-opacity="1" stroke-width="1.5" d="m 172.53406,172.07489 a 39.59798,39.59798 0 0 1 -39.59798,39.59798 39.59798,39.59798 0 0 1 -39.59798,-39.59798 39.59798,39.59798 0 0 1 39.59798,-39.59798 39.59798,39.59798 0 0 1 39.59798,39.59798 z" opacity="1" transform="matrix(0.3328355,0.1861203,-0.2305354,0.4122621,104.42157,39.321787)"/></g><g id="g3309" opacity=".904" transform="translate(1407.5787,13.92511)"><path id="path3311" fill="url(#radialGradient3317)" fill-opacity="1" stroke="none" stroke-dasharray="none" stroke-miterlimit="4" stroke-opacity="1" stroke-width="1.5" d="M 214.96046,172.07489 A 73.539108,73.539108 0 0 1 141.42136,245.614 73.539108,73.539108 0 0 1 67.882248,172.07489 73.539108,73.539108 0 0 1 141.42136,98.535782 73.539108,73.539108 0 0 1 214.96046,172.07489 Z" opacity=".55" transform="translate(-1.9328e-3,0)"/><path id="path3313" fill="#fff" fill-opacity=".761" stroke="none" stroke-dasharray="none" stroke-miterlimit="4" stroke-opacity="1" stroke-width="1.5" d="m 172.53406,172.07489 a 39.59798,39.59798 0 0 1 -39.59798,39.59798 39.59798,39.59798 0 0 1 -39.59798,-39.59798 39.59798,39.59798 0 0 1 39.59798,-39.59798 39.59798,39.59798 0 0 1 39.59798,39.59798 z" opacity=".479" transform="matrix(0.6857754,0.3834829,-0.4749959,0.8494263,105.11994,-50.171047)"/><path id="path3315" fill="#fff" fill-opacity=".761" stroke="none" stroke-dasharray="none" stroke-miterlimit="4" stroke-opacity="1" stroke-width="1.5" d="m 172.53406,172.07489 a 39.59798,39.59798 0 0 1 -39.59798,39.59798 39.59798,39.59798 0 0 1 -39.59798,-39.59798 39.59798,39.59798 0 0 1 39.59798,-39.59798 39.59798,39.59798 0 0 1 39.59798,39.59798 z" opacity="1" transform="matrix(0.3328355,0.1861203,-0.2305354,0.4122621,104.42157,39.321787)"/></g><g id="g3319" transform="translate(760.57865,119.92511)"><path id="path3321" fill="url(#radialGradient3327)" fill-opacity="1" stroke="none" stroke-dasharray="none" stroke-miterlimit="4" stroke-opacity="1" stroke-width="1.5" d="M 214.96046,172.07489 A 73.539108,73.539108 0 0 1 141.42136,245.614 73.539108,73.539108 0 0 1 67.882248,172.07489 73.539108,73.539108 0 0 1 141.42136,98.535782 73.539108,73.539108 0 0 1 214.96046,172.07489 Z" opacity=".55" transform="translate(-1.9328e-3,0)"/><path id="path3323" fill="#fff" fill-opacity=".761" stroke="none" stroke-dasharray="none" stroke-miterlimit="4" stroke-opacity="1" stroke-width="1.5" d="m 172.53406,172.07489 a 39.59798,39.59798 0 0 1 -39.59798,39.59798 39.59798,39.59798 0 0 1 -39.59798,-39.59798 39.59798,39.59798 0 0 1 39.59798,-39.59798 39.59798,39.59798 0 0 1 39.59798,39.59798 z" opacity=".479" transform="matrix(0.6857754,0.3834829,-0.4749959,0.8494263,105.11994,-50.171047)"/><path id="path3325" fill="#fff" fill-opacity=".761" stroke="none" stroke-dasharray="none" stroke-miterlimit="4" stroke-opacity="1" stroke-width="1.5" d="m 172.53406,172.07489 a 39.59798,39.59798 0 0 1 -39.59798,39.59798 39.59798,39.59798 0 0 1 -39.59798,-39.59798 39.59798,39.59798 0 0 1 39.59798,-39.59798 39.59798,39.59798 0 0 1 39.59798,39.59798 z" opacity="1" transform="matrix(0.3328355,0.1861203,-0.2305354,0.4122621,104.42157,39.321787)"/></g><g id="g3329" opacity=".908" transform="translate(1737.5786,-128.07489)"><path id="path3331" fill="url(#radialGradient3337)" fill-opacity="1" stroke="none" stroke-dasharray="none" stroke-miterlimit="4" stroke-opacity="1" stroke-width="1.5" d="M 214.96046,172.07489 A 73.539108,73.539108 0 0 1 141.42136,245.614 73.539108,73.539108 0 0 1 67.882248,172.07489 73.539108,73.539108 0 0 1 141.42136,98.535782 73.539108,73.539108 0 0 1 214.96046,172.07489 Z" opacity=".55" transform="translate(-1.9328e-3,0)"/><path id="path3333" fill="#fff" fill-opacity=".761" stroke="none" stroke-dasharray="none" stroke-miterlimit="4" stroke-opacity="1" stroke-width="1.5" d="m 172.53406,172.07489 a 39.59798,39.59798 0 0 1 -39.59798,39.59798 39.59798,39.59798 0 0 1 -39.59798,-39.59798 39.59798,39.59798 0 0 1 39.59798,-39.59798 39.59798,39.59798 0 0 1 39.59798,39.59798 z" opacity=".479" transform="matrix(0.6857754,0.3834829,-0.4749959,0.8494263,105.11994,-50.171047)"/><path id="path3335" fill="#fff" fill-opacity=".761" stroke="none" stroke-dasharray="none" stroke-miterlimit="4" stroke-opacity="1" stroke-width="1.5" d="m 172.53406,172.07489 a 39.59798,39.59798 0 0 1 -39.59798,39.59798 39.59798,39.59798 0 0 1 -39.59798,-39.59798 39.59798,39.59798 0 0 1 39.59798,-39.59798 39.59798,39.59798 0 0 1 39.59798,39.59798 z" opacity="1" transform="matrix(0.3328355,0.1861203,-0.2305354,0.4122621,104.42157,39.321787)"/></g><g id="g3339" opacity=".75" transform="translate(1574.5786,191.92511)"><path id="path3341" fill="url(#radialGradient3347)" fill-opacity="1" stroke="none" stroke-dasharray="none" stroke-miterlimit="4" stroke-opacity="1" stroke-width="1.5" d="M 214.96046,172.07489 A 73.539108,73.539108 0 0 1 141.42136,245.614 73.539108,73.539108 0 0 1 67.882248,172.07489 73.539108,73.539108 0 0 1 141.42136,98.535782 73.539108,73.539108 0 0 1 214.96046,172.07489 Z" opacity=".55" transform="translate(-1.9328e-3,0)"/><path id="path3343" fill="#fff" fill-opacity=".761" stroke="none" stroke-dasharray="none" stroke-miterlimit="4" stroke-opacity="1" stroke-width="1.5" d="m 172.53406,172.07489 a 39.59798,39.59798 0 0 1 -39.59798,39.59798 39.59798,39.59798 0 0 1 -39.59798,-39.59798 39.59798,39.59798 0 0 1 39.59798,-39.59798 39.59798,39.59798 0 0 1 39.59798,39.59798 z" opacity=".479" transform="matrix(0.6857754,0.3834829,-0.4749959,0.8494263,105.11994,-50.171047)"/><path id="path3345" fill="#fff" fill-opacity=".761" stroke="none" stroke-dasharray="none" stroke-miterlimit="4" stroke-opacity="1" stroke-width="1.5" d="m 172.53406,172.07489 a 39.59798,39.59798 0 0 1 -39.59798,39.59798 39.59798,39.59798 0 0 1 -39.59798,-39.59798 39.59798,39.59798 0 0 1 39.59798,-39.59798 39.59798,39.59798 0 0 1 39.59798,39.59798 z" opacity="1" transform="matrix(0.3328355,0.1861203,-0.2305354,0.4122621,104.42157,39.321787)"/></g><g id="g3349" opacity=".454" transform="translate(1599.5786,444.92511)"><path id="path3351" fill="url(#radialGradient3357)" fill-opacity="1" stroke="none" stroke-dasharray="none" stroke-miterlimit="4" stroke-opacity="1" stroke-width="1.5" d="M 214.96046,172.07489 A 73.539108,73.539108 0 0 1 141.42136,245.614 73.539108,73.539108 0 0 1 67.882248,172.07489 73.539108,73.539108 0 0 1 141.42136,98.535782 73.539108,73.539108 0 0 1 214.96046,172.07489 Z" opacity=".55" transform="translate(-1.9328e-3,0)"/><path id="path3353" fill="#fff" fill-opacity=".761" stroke="none" stroke-dasharray="none" stroke-miterlimit="4" stroke-opacity="1" stroke-width="1.5" d="m 172.53406,172.07489 a 39.59798,39.59798 0 0 1 -39.59798,39.59798 39.59798,39.59798 0 0 1 -39.59798,-39.59798 39.59798,39.59798 0 0 1 39.59798,-39.59798 39.59798,39.59798 0 0 1 39.59798,39.59798 z" opacity=".479" transform="matrix(0.6857754,0.3834829,-0.4749959,0.8494263,105.11994,-50.171047)"/><path id="path3355" fill="#fff" fill-opacity=".761" stroke="none" stroke-dasharray="none" stroke-miterlimit="4" stroke-opacity="1" stroke-width="1.5" d="m 172.53406,172.07489 a 39.59798,39.59798 0 0 1 -39.59798,39.59798 39.59798,39.59798 0 0 1 -39.59798,-39.59798 39.59798,39.59798 0 0 1 39.59798,-39.59798 39.59798,39.59798 0 0 1 39.59798,39.59798 z" opacity="1" transform="matrix(0.3328355,0.1861203,-0.2305354,0.4122621,104.42157,39.321787)"/></g><g id="g3359" opacity=".512" transform="translate(29.578644,429.92511)"><path id="path3361" fill="url(#radialGradient3367)" fill-opacity="1" stroke="none" stroke-dasharray="none" stroke-miterlimit="4" stroke-opacity="1" stroke-width="1.5" d="M 214.96046,172.07489 A 73.539108,73.539108 0 0 1 141.42136,245.614 73.539108,73.539108 0 0 1 67.882248,172.07489 73.539108,73.539108 0 0 1 141.42136,98.535782 73.539108,73.539108 0 0 1 214.96046,172.07489 Z" opacity=".55" transform="translate(-1.9328e-3,0)"/><path id="path3363" fill="#fff" fill-opacity=".761" stroke="none" stroke-dasharray="none" stroke-miterlimit="4" stroke-opacity="1" stroke-width="1.5" d="m 172.53406,172.07489 a 39.59798,39.59798 0 0 1 -39.59798,39.59798 39.59798,39.59798 0 0 1 -39.59798,-39.59798 39.59798,39.59798 0 0 1 39.59798,-39.59798 39.59798,39.59798 0 0 1 39.59798,39.59798 z" opacity=".479" transform="matrix(0.6857754,0.3834829,-0.4749959,0.8494263,105.11994,-50.171047)"/><path id="path3365" fill="#fff" fill-opacity=".761" stroke="none" stroke-dasharray="none" stroke-miterlimit="4" stroke-opacity="1" stroke-width="1.5" d="m 172.53406,172.07489 a 39.59798,39.59798 0 0 1 -39.59798,39.59798 39.59798,39.59798 0 0 1 -39.59798,-39.59798 39.59798,39.59798 0 0 1 39.59798,-39.59798 39.59798,39.59798 0 0 1 39.59798,39.59798 z" opacity="1" transform="matrix(0.3328355,0.1861203,-0.2305354,0.4122621,104.42157,39.321787)"/></g><g id="g3369" opacity=".704" transform="matrix(0.4424735,0,0,0.4424735,988.42372,66.861416)"><path id="path3371" fill="url(#radialGradient3377)" fill-opacity="1" stroke="none" stroke-dasharray="none" stroke-miterlimit="4" stroke-opacity="1" stroke-width="1.5" d="M 214.96046,172.07489 A 73.539108,73.539108 0 0 1 141.42136,245.614 73.539108,73.539108 0 0 1 67.882248,172.07489 73.539108,73.539108 0 0 1 141.42136,98.535782 73.539108,73.539108 0 0 1 214.96046,172.07489 Z" opacity=".55" transform="translate(-1.9328e-3,0)"/><path id="path3373" fill="#fff" fill-opacity=".761" stroke="none" stroke-dasharray="none" stroke-miterlimit="4" stroke-opacity="1" stroke-width="1.5" d="m 172.53406,172.07489 a 39.59798,39.59798 0 0 1 -39.59798,39.59798 39.59798,39.59798 0 0 1 -39.59798,-39.59798 39.59798,39.59798 0 0 1 39.59798,-39.59798 39.59798,39.59798 0 0 1 39.59798,39.59798 z" opacity=".479" transform="matrix(0.6857754,0.3834829,-0.4749959,0.8494263,105.11994,-50.171047)"/><path id="path3375" fill="#fff" fill-opacity=".761" stroke="none" stroke-dasharray="none" stroke-miterlimit="4" stroke-opacity="1" stroke-width="1.5" d="m 172.53406,172.07489 a 39.59798,39.59798 0 0 1 -39.59798,39.59798 39.59798,39.59798 0 0 1 -39.59798,-39.59798 39.59798,39.59798 0 0 1 39.59798,-39.59798 39.59798,39.59798 0 0 1 39.59798,39.59798 z" opacity="1" transform="matrix(0.3328355,0.1861203,-0.2305354,0.4122621,104.42157,39.321787)"/></g><g id="g3379" opacity=".769" transform="matrix(0.4424735,0,0,0.4424735,1421.4237,285.86142)"><path id="path3381" fill="url(#radialGradient3387)" fill-opacity="1" stroke="none" stroke-dasharray="none" stroke-miterlimit="4" stroke-opacity="1" stroke-width="1.5" d="M 214.96046,172.07489 A 73.539108,73.539108 0 0 1 141.42136,245.614 73.539108,73.539108 0 0 1 67.882248,172.07489 73.539108,73.539108 0 0 1 141.42136,98.535782 73.539108,73.539108 0 0 1 214.96046,172.07489 Z" opacity=".55" transform="translate(-1.9328e-3,0)"/><path id="path3383" fill="#fff" fill-opacity=".761" stroke="none" stroke-dasharray="none" stroke-miterlimit="4" stroke-opacity="1" stroke-width="1.5" d="m 172.53406,172.07489 a 39.59798,39.59798 0 0 1 -39.59798,39.59798 39.59798,39.59798 0 0 1 -39.59798,-39.59798 39.59798,39.59798 0 0 1 39.59798,-39.59798 39.59798,39.59798 0 0 1 39.59798,39.59798 z" opacity=".479" transform="matrix(0.6857754,0.3834829,-0.4749959,0.8494263,105.11994,-50.171047)"/><path id="path3385" fill="#fff" fill-opacity=".761" stroke="none" stroke-dasharray="none" stroke-miterlimit="4" stroke-opacity="1" stroke-width="1.5" d="m 172.53406,172.07489 a 39.59798,39.59798 0 0 1 -39.59798,39.59798 39.59798,39.59798 0 0 1 -39.59798,-39.59798 39.59798,39.59798 0 0 1 39.59798,-39.59798 39.59798,39.59798 0 0 1 39.59798,39.59798 z" opacity="1" transform="matrix(0.3328355,0.1861203,-0.2305354,0.4122621,104.42157,39.321787)"/></g><g id="g3389" opacity=".662" transform="matrix(0.4424735,0,0,0.4424735,565.42372,253.86142)"><path id="path3391" fill="url(#radialGradient3397)" fill-opacity="1" stroke="none" stroke-dasharray="none" stroke-miterlimit="4" stroke-opacity="1" stroke-width="1.5" d="M 214.96046,172.07489 A 73.539108,73.539108 0 0 1 141.42136,245.614 73.539108,73.539108 0 0 1 67.882248,172.07489 73.539108,73.539108 0 0 1 141.42136,98.535782 73.539108,73.539108 0 0 1 214.96046,172.07489 Z" opacity=".55" transform="translate(-1.9328e-3,0)"/><path id="path3393" fill="#fff" fill-opacity=".761" stroke="none" stroke-dasharray="none" stroke-miterlimit="4" stroke-opacity="1" stroke-width="1.5" d="m 172.53406,172.07489 a 39.59798,39.59798 0 0 1 -39.59798,39.59798 39.59798,39.59798 0 0 1 -39.59798,-39.59798 39.59798,39.59798 0 0 1 39.59798,-39.59798 39.59798,39.59798 0 0 1 39.59798,39.59798 z" opacity=".479" transform="matrix(0.6857754,0.3834829,-0.4749959,0.8494263,105.11994,-50.171047)"/><path id="path3395" fill="#fff" fill-opacity=".761" stroke="none" stroke-dasharray="none" stroke-miterlimit="4" stroke-opacity="1" stroke-width="1.5" d="m 172.53406,172.07489 a 39.59798,39.59798 0 0 1 -39.59798,39.59798 39.59798,39.59798 0 0 1 -39.59798,-39.59798 39.59798,39.59798 0 0 1 39.59798,-39.59798 39.59798,39.59798 0 0 1 39.59798,39.59798 z" opacity="1" transform="matrix(0.3328355,0.1861203,-0.2305354,0.4122621,104.42157,39.321787)"/></g><g id="g3399" transform="matrix(0.4424735,0,0,0.4424735,213.42372,-6.1385809)"><path id="path3401" fill="url(#radialGradient3407)" fill-opacity="1" stroke="none" stroke-dasharray="none" stroke-miterlimit="4" stroke-opacity="1" stroke-width="1.5" d="M 214.96046,172.07489 A 73.539108,73.539108 0 0 1 141.42136,245.614 73.539108,73.539108 0 0 1 67.882248,172.07489 73.539108,73.539108 0 0 1 141.42136,98.535782 73.539108,73.539108 0 0 1 214.96046,172.07489 Z" opacity=".55" transform="translate(-1.9328e-3,0)"/><path id="path3403" fill="#fff" fill-opacity=".761" stroke="none" stroke-dasharray="none" stroke-miterlimit="4" stroke-opacity="1" stroke-width="1.5" d="m 172.53406,172.07489 a 39.59798,39.59798 0 0 1 -39.59798,39.59798 39.59798,39.59798 0 0 1 -39.59798,-39.59798 39.59798,39.59798 0 0 1 39.59798,-39.59798 39.59798,39.59798 0 0 1 39.59798,39.59798 z" opacity=".479" transform="matrix(0.6857754,0.3834829,-0.4749959,0.8494263,105.11994,-50.171047)"/><path id="path3405" fill="#fff" fill-opacity=".761" stroke="none" stroke-dasharray="none" stroke-miterlimit="4" stroke-opacity="1" stroke-width="1.5" d="m 172.53406,172.07489 a 39.59798,39.59798 0 0 1 -39.59798,39.59798 39.59798,39.59798 0 0 1 -39.59798,-39.59798 39.59798,39.59798 0 0 1 39.59798,-39.59798 39.59798,39.59798 0 0 1 39.59798,39.59798 z" opacity="1" transform="matrix(0.3328355,0.1861203,-0.2305354,0.4122621,104.42157,39.321787)"/></g><g id="g3409" transform="matrix(0.4424735,0,0,0.4424735,29.42372,297.86142)"><path id="path3411" fill="url(#radialGradient3417)" fill-opacity="1" stroke="none" stroke-dasharray="none" stroke-miterlimit="4" stroke-opacity="1" stroke-width="1.5" d="M 214.96046,172.07489 A 73.539108,73.539108 0 0 1 141.42136,245.614 73.539108,73.539108 0 0 1 67.882248,172.07489 73.539108,73.539108 0 0 1 141.42136,98.535782 73.539108,73.539108 0 0 1 214.96046,172.07489 Z" opacity=".55" transform="translate(-1.9328e-3,0)"/><path id="path3413" fill="#fff" fill-opacity=".761" stroke="none" stroke-dasharray="none" stroke-miterlimit="4" stroke-opacity="1" stroke-width="1.5" d="m 172.53406,172.07489 a 39.59798,39.59798 0 0 1 -39.59798,39.59798 39.59798,39.59798 0 0 1 -39.59798,-39.59798 39.59798,39.59798 0 0 1 39.59798,-39.59798 39.59798,39.59798 0 0 1 39.59798,39.59798 z" opacity=".479" transform="matrix(0.6857754,0.3834829,-0.4749959,0.8494263,105.11994,-50.171047)"/><path id="path3415" fill="#fff" fill-opacity=".761" stroke="none" stroke-dasharray="none" stroke-miterlimit="4" stroke-opacity="1" stroke-width="1.5" d="m 172.53406,172.07489 a 39.59798,39.59798 0 0 1 -39.59798,39.59798 39.59798,39.59798 0 0 1 -39.59798,-39.59798 39.59798,39.59798 0 0 1 39.59798,-39.59798 39.59798,39.59798 0 0 1 39.59798,39.59798 z" opacity="1" transform="matrix(0.3328355,0.1861203,-0.2305354,0.4122621,104.42157,39.321787)"/></g><g id="g3419" transform="matrix(0.4424735,0,0,0.4424735,337.42372,463.86142)"><path id="path3421" fill="url(#radialGradient3427)" fill-opacity="1" stroke="none" stroke-dasharray="none" stroke-miterlimit="4" stroke-opacity="1" stroke-width="1.5" d="M 214.96046,172.07489 A 73.539108,73.539108 0 0 1 141.42136,245.614 73.539108,73.539108 0 0 1 67.882248,172.07489 73.539108,73.539108 0 0 1 141.42136,98.535782 73.539108,73.539108 0 0 1 214.96046,172.07489 Z" opacity=".55" transform="translate(-1.9328e-3,0)"/><path id="path3423" fill="#fff" fill-opacity=".761" stroke="none" stroke-dasharray="none" stroke-miterlimit="4" stroke-opacity="1" stroke-width="1.5" d="m 172.53406,172.07489 a 39.59798,39.59798 0 0 1 -39.59798,39.59798 39.59798,39.59798 0 0 1 -39.59798,-39.59798 39.59798,39.59798 0 0 1 39.59798,-39.59798 39.59798,39.59798 0 0 1 39.59798,39.59798 z" opacity=".479" transform="matrix(0.6857754,0.3834829,-0.4749959,0.8494263,105.11994,-50.171047)"/><path id="path3425" fill="#fff" fill-opacity=".761" stroke="none" stroke-dasharray="none" stroke-miterlimit="4" stroke-opacity="1" stroke-width="1.5" d="m 172.53406,172.07489 a 39.59798,39.59798 0 0 1 -39.59798,39.59798 39.59798,39.59798 0 0 1 -39.59798,-39.59798 39.59798,39.59798 0 0 1 39.59798,-39.59798 39.59798,39.59798 0 0 1 39.59798,39.59798 z" opacity="1" transform="matrix(0.3328355,0.1861203,-0.2305354,0.4122621,104.42157,39.321787)"/></g><g id="g3429" transform="matrix(0.1977058,0,0,0.1977058,4.0386301,5.979798)"><path id="path3431" fill="url(#radialGradient3437)" fill-opacity="1" stroke="none" stroke-dasharray="none" stroke-miterlimit="4" stroke-opacity="1" stroke-width="1.5" d="M 214.96046,172.07489 A 73.539108,73.539108 0 0 1 141.42136,245.614 73.539108,73.539108 0 0 1 67.882248,172.07489 73.539108,73.539108 0 0 1 141.42136,98.535782 73.539108,73.539108 0 0 1 214.96046,172.07489 Z" opacity=".55" transform="translate(-1.9328e-3,0)"/><path id="path3433" fill="#fff" fill-opacity=".761" stroke="none" stroke-dasharray="none" stroke-miterlimit="4" stroke-opacity="1" stroke-width="1.5" d="m 172.53406,172.07489 a 39.59798,39.59798 0 0 1 -39.59798,39.59798 39.59798,39.59798 0 0 1 -39.59798,-39.59798 39.59798,39.59798 0 0 1 39.59798,-39.59798 39.59798,39.59798 0 0 1 39.59798,39.59798 z" opacity=".479" transform="matrix(0.6857754,0.3834829,-0.4749959,0.8494263,105.11994,-50.171047)"/><path id="path3435" fill="#fff" fill-opacity=".761" stroke="none" stroke-dasharray="none" stroke-miterlimit="4" stroke-opacity="1" stroke-width="1.5" d="m 172.53406,172.07489 a 39.59798,39.59798 0 0 1 -39.59798,39.59798 39.59798,39.59798 0 0 1 -39.59798,-39.59798 39.59798,39.59798 0 0 1 39.59798,-39.59798 39.59798,39.59798 0 0 1 39.59798,39.59798 z" opacity="1" transform="matrix(0.3328355,0.1861203,-0.2305354,0.4122621,104.42157,39.321787)"/></g><g id="g3439" opacity=".713" transform="matrix(0.1977058,0,0,0.1977058,128.03863,-2.0205846e-2)"><path id="path3441" fill="url(#radialGradient3447)" fill-opacity="1" stroke="none" stroke-dasharray="none" stroke-miterlimit="4" stroke-opacity="1" stroke-width="1.5" d="M 214.96046,172.07489 A 73.539108,73.539108 0 0 1 141.42136,245.614 73.539108,73.539108 0 0 1 67.882248,172.07489 73.539108,73.539108 0 0 1 141.42136,98.535782 73.539108,73.539108 0 0 1 214.96046,172.07489 Z" opacity=".55" transform="translate(-1.9328e-3,0)"/><path id="path3443" fill="#fff" fill-opacity=".761" stroke="none" stroke-dasharray="none" stroke-miterlimit="4" stroke-opacity="1" stroke-width="1.5" d="m 172.53406,172.07489 a 39.59798,39.59798 0 0 1 -39.59798,39.59798 39.59798,39.59798 0 0 1 -39.59798,-39.59798 39.59798,39.59798 0 0 1 39.59798,-39.59798 39.59798,39.59798 0 0 1 39.59798,39.59798 z" opacity=".479" transform="matrix(0.6857754,0.3834829,-0.4749959,0.8494263,105.11994,-50.171047)"/><path id="path3445" fill="#fff" fill-opacity=".761" stroke="none" stroke-dasharray="none" stroke-miterlimit="4" stroke-opacity="1" stroke-width="1.5" d="m 172.53406,172.07489 a 39.59798,39.59798 0 0 1 -39.59798,39.59798 39.59798,39.59798 0 0 1 -39.59798,-39.59798 39.59798,39.59798 0 0 1 39.59798,-39.59798 39.59798,39.59798 0 0 1 39.59798,39.59798 z" opacity="1" transform="matrix(0.3328355,0.1861203,-0.2305354,0.4122621,104.42157,39.321787)"/></g><g id="g3449" transform="matrix(0.1977058,0,0,0.1977058,6.038627,211.97979)"><path id="path3451" fill="url(#radialGradient3457)" fill-opacity="1" stroke="none" stroke-dasharray="none" stroke-miterlimit="4" stroke-opacity="1" stroke-width="1.5" d="M 214.96046,172.07489 A 73.539108,73.539108 0 0 1 141.42136,245.614 73.539108,73.539108 0 0 1 67.882248,172.07489 73.539108,73.539108 0 0 1 141.42136,98.535782 73.539108,73.539108 0 0 1 214.96046,172.07489 Z" opacity=".55" transform="translate(-1.9328e-3,0)"/><path id="path3453" fill="#fff" fill-opacity=".761" stroke="none" stroke-dasharray="none" stroke-miterlimit="4" stroke-opacity="1" stroke-width="1.5" d="m 172.53406,172.07489 a 39.59798,39.59798 0 0 1 -39.59798,39.59798 39.59798,39.59798 0 0 1 -39.59798,-39.59798 39.59798,39.59798 0 0 1 39.59798,-39.59798 39.59798,39.59798 0 0 1 39.59798,39.59798 z" opacity=".479" transform="matrix(0.6857754,0.3834829,-0.4749959,0.8494263,105.11994,-50.171047)"/><path id="path3455" fill="#fff" fill-opacity=".761" stroke="none" stroke-dasharray="none" stroke-miterlimit="4" stroke-opacity="1" stroke-width="1.5" d="m 172.53406,172.07489 a 39.59798,39.59798 0 0 1 -39.59798,39.59798 39.59798,39.59798 0 0 1 -39.59798,-39.59798 39.59798,39.59798 0 0 1 39.59798,-39.59798 39.59798,39.59798 0 0 1 39.59798,39.59798 z" opacity="1" transform="matrix(0.3328355,0.1861203,-0.2305354,0.4122621,104.42157,39.321787)"/></g><g id="g3459" transform="matrix(0.1977058,0,0,0.1977058,266.03863,161.97979)"><path id="path3461" fill="url(#radialGradient3467)" fill-opacity="1" stroke="none" stroke-dasharray="none" stroke-miterlimit="4" stroke-opacity="1" stroke-width="1.5" d="M 214.96046,172.07489 A 73.539108,73.539108 0 0 1 141.42136,245.614 73.539108,73.539108 0 0 1 67.882248,172.07489 73.539108,73.539108 0 0 1 141.42136,98.535782 73.539108,73.539108 0 0 1 214.96046,172.07489 Z" opacity=".55" transform="translate(-1.9328e-3,0)"/><path id="path3463" fill="#fff" fill-opacity=".761" stroke="none" stroke-dasharray="none" stroke-miterlimit="4" stroke-opacity="1" stroke-width="1.5" d="m 172.53406,172.07489 a 39.59798,39.59798 0 0 1 -39.59798,39.59798 39.59798,39.59798 0 0 1 -39.59798,-39.59798 39.59798,39.59798 0 0 1 39.59798,-39.59798 39.59798,39.59798 0 0 1 39.59798,39.59798 z" opacity=".479" transform="matrix(0.6857754,0.3834829,-0.4749959,0.8494263,105.11994,-50.171047)"/><path id="path3465" fill="#fff" fill-opacity=".761" stroke="none" stroke-dasharray="none" stroke-miterlimit="4" stroke-opacity="1" stroke-width="1.5" d="m 172.53406,172.07489 a 39.59798,39.59798 0 0 1 -39.59798,39.59798 39.59798,39.59798 0 0 1 -39.59798,-39.59798 39.59798,39.59798 0 0 1 39.59798,-39.59798 39.59798,39.59798 0 0 1 39.59798,39.59798 z" opacity="1" transform="matrix(0.3328355,0.1861203,-0.2305354,0.4122621,104.42157,39.321787)"/></g><g id="g3469" transform="matrix(0.1977058,0,0,0.1977058,170.03863,319.97979)"><path id="path3471" fill="url(#radialGradient3477)" fill-opacity="1" stroke="none" stroke-dasharray="none" stroke-miterlimit="4" stroke-opacity="1" stroke-width="1.5" d="M 214.96046,172.07489 A 73.539108,73.539108 0 0 1 141.42136,245.614 73.539108,73.539108 0 0 1 67.882248,172.07489 73.539108,73.539108 0 0 1 141.42136,98.535782 73.539108,73.539108 0 0 1 214.96046,172.07489 Z" opacity=".55" transform="translate(-1.9328e-3,0)"/><path id="path3473" fill="#fff" fill-opacity=".761" stroke="none" stroke-dasharray="none" stroke-miterlimit="4" stroke-opacity="1" stroke-width="1.5" d="m 172.53406,172.07489 a 39.59798,39.59798 0 0 1 -39.59798,39.59798 39.59798,39.59798 0 0 1 -39.59798,-39.59798 39.59798,39.59798 0 0 1 39.59798,-39.59798 39.59798,39.59798 0 0 1 39.59798,39.59798 z" opacity=".479" transform="matrix(0.6857754,0.3834829,-0.4749959,0.8494263,105.11994,-50.171047)"/><path id="path3475" fill="#fff" fill-opacity=".761" stroke="none" stroke-dasharray="none" stroke-miterlimit="4" stroke-opacity="1" stroke-width="1.5" d="m 172.53406,172.07489 a 39.59798,39.59798 0 0 1 -39.59798,39.59798 39.59798,39.59798 0 0 1 -39.59798,-39.59798 39.59798,39.59798 0 0 1 39.59798,-39.59798 39.59798,39.59798 0 0 1 39.59798,39.59798 z" opacity="1" transform="matrix(0.3328355,0.1861203,-0.2305354,0.4122621,104.42157,39.321787)"/></g><g id="g3479" transform="matrix(0.1977058,0,0,0.1977058,632.03863,1.9797942)"><path id="path3481" fill="url(#radialGradient3487)" fill-opacity="1" stroke="none" stroke-dasharray="none" stroke-miterlimit="4" stroke-opacity="1" stroke-width="1.5" d="M 214.96046,172.07489 A 73.539108,73.539108 0 0 1 141.42136,245.614 73.539108,73.539108 0 0 1 67.882248,172.07489 73.539108,73.539108 0 0 1 141.42136,98.535782 73.539108,73.539108 0 0 1 214.96046,172.07489 Z" opacity=".55" transform="translate(-1.9328e-3,0)"/><path id="path3483" fill="#fff" fill-opacity=".761" stroke="none" stroke-dasharray="none" stroke-miterlimit="4" stroke-opacity="1" stroke-width="1.5" d="m 172.53406,172.07489 a 39.59798,39.59798 0 0 1 -39.59798,39.59798 39.59798,39.59798 0 0 1 -39.59798,-39.59798 39.59798,39.59798 0 0 1 39.59798,-39.59798 39.59798,39.59798 0 0 1 39.59798,39.59798 z" opacity=".479" transform="matrix(0.6857754,0.3834829,-0.4749959,0.8494263,105.11994,-50.171047)"/><path id="path3485" fill="#fff" fill-opacity=".761" stroke="none" stroke-dasharray="none" stroke-miterlimit="4" stroke-opacity="1" stroke-width="1.5" d="m 172.53406,172.07489 a 39.59798,39.59798 0 0 1 -39.59798,39.59798 39.59798,39.59798 0 0 1 -39.59798,-39.59798 39.59798,39.59798 0 0 1 39.59798,-39.59798 39.59798,39.59798 0 0 1 39.59798,39.59798 z" opacity="1" transform="matrix(0.3328355,0.1861203,-0.2305354,0.4122621,104.42157,39.321787)"/></g><g id="g3489" transform="matrix(0.1977058,0,0,0.1977058,522.03863,11.979794)"><path id="path3491" fill="url(#radialGradient3497)" fill-opacity="1" stroke="none" stroke-dasharray="none" stroke-miterlimit="4" stroke-opacity="1" stroke-width="1.5" d="M 214.96046,172.07489 A 73.539108,73.539108 0 0 1 141.42136,245.614 73.539108,73.539108 0 0 1 67.882248,172.07489 73.539108,73.539108 0 0 1 141.42136,98.535782 73.539108,73.539108 0 0 1 214.96046,172.07489 Z" opacity=".55" transform="translate(-1.9328e-3,0)"/><path id="path3493" fill="#fff" fill-opacity=".761" stroke="none" stroke-dasharray="none" stroke-miterlimit="4" stroke-opacity="1" stroke-width="1.5" d="m 172.53406,172.07489 a 39.59798,39.59798 0 0 1 -39.59798,39.59798 39.59798,39.59798 0 0 1 -39.59798,-39.59798 39.59798,39.59798 0 0 1 39.59798,-39.59798 39.59798,39.59798 0 0 1 39.59798,39.59798 z" opacity=".479" transform="matrix(0.6857754,0.3834829,-0.4749959,0.8494263,105.11994,-50.171047)"/><path id="path3495" fill="#fff" fill-opacity=".761" stroke="none" stroke-dasharray="none" stroke-miterlimit="4" stroke-opacity="1" stroke-width="1.5" d="m 172.53406,172.07489 a 39.59798,39.59798 0 0 1 -39.59798,39.59798 39.59798,39.59798 0 0 1 -39.59798,-39.59798 39.59798,39.59798 0 0 1 39.59798,-39.59798 39.59798,39.59798 0 0 1 39.59798,39.59798 z" opacity="1" transform="matrix(0.3328355,0.1861203,-0.2305354,0.4122621,104.42157,39.321787)"/></g><g id="g3499" opacity=".688" transform="matrix(0.1977058,0,0,0.1977058,566.03863,95.979794)"><path id="path3501" fill="url(#radialGradient3507)" fill-opacity="1" stroke="none" stroke-dasharray="none" stroke-miterlimit="4" stroke-opacity="1" stroke-width="1.5" d="M 214.96046,172.07489 A 73.539108,73.539108 0 0 1 141.42136,245.614 73.539108,73.539108 0 0 1 67.882248,172.07489 73.539108,73.539108 0 0 1 141.42136,98.535782 73.539108,73.539108 0 0 1 214.96046,172.07489 Z" opacity=".55" transform="translate(-1.9328e-3,0)"/><path id="path3503" fill="#fff" fill-opacity=".761" stroke="none" stroke-dasharray="none" stroke-miterlimit="4" stroke-opacity="1" stroke-width="1.5" d="m 172.53406,172.07489 a 39.59798,39.59798 0 0 1 -39.59798,39.59798 39.59798,39.59798 0 0 1 -39.59798,-39.59798 39.59798,39.59798 0 0 1 39.59798,-39.59798 39.59798,39.59798 0 0 1 39.59798,39.59798 z" opacity=".479" transform="matrix(0.6857754,0.3834829,-0.4749959,0.8494263,105.11994,-50.171047)"/><path id="path3505" fill="#fff" fill-opacity=".761" stroke="none" stroke-dasharray="none" stroke-miterlimit="4" stroke-opacity="1" stroke-width="1.5" d="m 172.53406,172.07489 a 39.59798,39.59798 0 0 1 -39.59798,39.59798 39.59798,39.59798 0 0 1 -39.59798,-39.59798 39.59798,39.59798 0 0 1 39.59798,-39.59798 39.59798,39.59798 0 0 1 39.59798,39.59798 z" opacity="1" transform="matrix(0.3328355,0.1861203,-0.2305354,0.4122621,104.42157,39.321787)"/></g><g id="g3509" opacity=".688" transform="matrix(0.1977058,0,0,0.1977058,714.03863,213.97979)"><path id="path3511" fill="url(#radialGradient3517)" fill-opacity="1" stroke="none" stroke-dasharray="none" stroke-miterlimit="4" stroke-opacity="1" stroke-width="1.5" d="M 214.96046,172.07489 A 73.539108,73.539108 0 0 1 141.42136,245.614 73.539108,73.539108 0 0 1 67.882248,172.07489 73.539108,73.539108 0 0 1 141.42136,98.535782 73.539108,73.539108 0 0 1 214.96046,172.07489 Z" opacity=".55" transform="translate(-1.9328e-3,0)"/><path id="path3513" fill="#fff" fill-opacity=".761" stroke="none" stroke-dasharray="none" stroke-miterlimit="4" stroke-opacity="1" stroke-width="1.5" d="m 172.53406,172.07489 a 39.59798,39.59798 0 0 1 -39.59798,39.59798 39.59798,39.59798 0 0 1 -39.59798,-39.59798 39.59798,39.59798 0 0 1 39.59798,-39.59798 39.59798,39.59798 0 0 1 39.59798,39.59798 z" opacity=".479" transform="matrix(0.6857754,0.3834829,-0.4749959,0.8494263,105.11994,-50.171047)"/><path id="path3515" fill="#fff" fill-opacity=".761" stroke="none" stroke-dasharray="none" stroke-miterlimit="4" stroke-opacity="1" stroke-width="1.5" d="m 172.53406,172.07489 a 39.59798,39.59798 0 0 1 -39.59798,39.59798 39.59798,39.59798 0 0 1 -39.59798,-39.59798 39.59798,39.59798 0 0 1 39.59798,-39.59798 39.59798,39.59798 0 0 1 39.59798,39.59798 z" opacity="1" transform="matrix(0.3328355,0.1861203,-0.2305354,0.4122621,104.42157,39.321787)"/></g><g id="g3519" transform="matrix(0.1977058,0,0,0.1977058,490.03863,187.97979)"><path id="path3521" fill="url(#radialGradient3527)" fill-opacity="1" stroke="none" stroke-dasharray="none" stroke-miterlimit="4" stroke-opacity="1" stroke-width="1.5" d="M 214.96046,172.07489 A 73.539108,73.539108 0 0 1 141.42136,245.614 73.539108,73.539108 0 0 1 67.882248,172.07489 73.539108,73.539108 0 0 1 141.42136,98.535782 73.539108,73.539108 0 0 1 214.96046,172.07489 Z" opacity=".55" transform="translate(-1.9328e-3,0)"/><path id="path3523" fill="#fff" fill-opacity=".761" stroke="none" stroke-dasharray="none" stroke-miterlimit="4" stroke-opacity="1" stroke-width="1.5" d="m 172.53406,172.07489 a 39.59798,39.59798 0 0 1 -39.59798,39.59798 39.59798,39.59798 0 0 1 -39.59798,-39.59798 39.59798,39.59798 0 0 1 39.59798,-39.59798 39.59798,39.59798 0 0 1 39.59798,39.59798 z" opacity=".479" transform="matrix(0.6857754,0.3834829,-0.4749959,0.8494263,105.11994,-50.171047)"/><path id="path3525" fill="#fff" fill-opacity=".761" stroke="none" stroke-dasharray="none" stroke-miterlimit="4" stroke-opacity="1" stroke-width="1.5" d="m 172.53406,172.07489 a 39.59798,39.59798 0 0 1 -39.59798,39.59798 39.59798,39.59798 0 0 1 -39.59798,-39.59798 39.59798,39.59798 0 0 1 39.59798,-39.59798 39.59798,39.59798 0 0 1 39.59798,39.59798 z" opacity="1" transform="matrix(0.3328355,0.1861203,-0.2305354,0.4122621,104.42157,39.321787)"/></g><g id="g3529" transform="matrix(0.1977058,0,0,0.1977058,982.03863,19.979794)"><path id="path3531" fill="url(#radialGradient3537)" fill-opacity="1" stroke="none" stroke-dasharray="none" stroke-miterlimit="4" stroke-opacity="1" stroke-width="1.5" d="M 214.96046,172.07489 A 73.539108,73.539108 0 0 1 141.42136,245.614 73.539108,73.539108 0 0 1 67.882248,172.07489 73.539108,73.539108 0 0 1 141.42136,98.535782 73.539108,73.539108 0 0 1 214.96046,172.07489 Z" opacity=".55" transform="translate(-1.9328e-3,0)"/><path id="path3533" fill="#fff" fill-opacity=".761" stroke="none" stroke-dasharray="none" stroke-miterlimit="4" stroke-opacity="1" stroke-width="1.5" d="m 172.53406,172.07489 a 39.59798,39.59798 0 0 1 -39.59798,39.59798 39.59798,39.59798 0 0 1 -39.59798,-39.59798 39.59798,39.59798 0 0 1 39.59798,-39.59798 39.59798,39.59798 0 0 1 39.59798,39.59798 z" opacity=".479" transform="matrix(0.6857754,0.3834829,-0.4749959,0.8494263,105.11994,-50.171047)"/><path id="path3535" fill="#fff" fill-opacity=".761" stroke="none" stroke-dasharray="none" stroke-miterlimit="4" stroke-opacity="1" stroke-width="1.5" d="m 172.53406,172.07489 a 39.59798,39.59798 0 0 1 -39.59798,39.59798 39.59798,39.59798 0 0 1 -39.59798,-39.59798 39.59798,39.59798 0 0 1 39.59798,-39.59798 39.59798,39.59798 0 0 1 39.59798,39.59798 z" opacity="1" transform="matrix(0.3328355,0.1861203,-0.2305354,0.4122621,104.42157,39.321787)"/></g><g id="g3539" transform="matrix(0.1977058,0,0,0.1977058,890.03863,97.979794)"><path id="path3541" fill="url(#radialGradient3547)" fill-opacity="1" stroke="none" stroke-dasharray="none" stroke-miterlimit="4" stroke-opacity="1" stroke-width="1.5" d="M 214.96046,172.07489 A 73.539108,73.539108 0 0 1 141.42136,245.614 73.539108,73.539108 0 0 1 67.882248,172.07489 73.539108,73.539108 0 0 1 141.42136,98.535782 73.539108,73.539108 0 0 1 214.96046,172.07489 Z" opacity=".55" transform="translate(-1.9328e-3,0)"/><path id="path3543" fill="#fff" fill-opacity=".761" stroke="none" stroke-dasharray="none" stroke-miterlimit="4" stroke-opacity="1" stroke-width="1.5" d="m 172.53406,172.07489 a 39.59798,39.59798 0 0 1 -39.59798,39.59798 39.59798,39.59798 0 0 1 -39.59798,-39.59798 39.59798,39.59798 0 0 1 39.59798,-39.59798 39.59798,39.59798 0 0 1 39.59798,39.59798 z" opacity=".479" transform="matrix(0.6857754,0.3834829,-0.4749959,0.8494263,105.11994,-50.171047)"/><path id="path3545" fill="#fff" fill-opacity=".761" stroke="none" stroke-dasharray="none" stroke-miterlimit="4" stroke-opacity="1" stroke-width="1.5" d="m 172.53406,172.07489 a 39.59798,39.59798 0 0 1 -39.59798,39.59798 39.59798,39.59798 0 0 1 -39.59798,-39.59798 39.59798,39.59798 0 0 1 39.59798,-39.59798 39.59798,39.59798 0 0 1 39.59798,39.59798 z" opacity="1" transform="matrix(0.3328355,0.1861203,-0.2305354,0.4122621,104.42157,39.321787)"/></g><g id="g3549" opacity=".767" transform="matrix(0.1977058,0,0,0.1977058,1180.0386,157.97979)"><path id="path3551" fill="url(#radialGradient3557)" fill-opacity="1" stroke="none" stroke-dasharray="none" stroke-miterlimit="4" stroke-opacity="1" stroke-width="1.5" d="M 214.96046,172.07489 A 73.539108,73.539108 0 0 1 141.42136,245.614 73.539108,73.539108 0 0 1 67.882248,172.07489 73.539108,73.539108 0 0 1 141.42136,98.535782 73.539108,73.539108 0 0 1 214.96046,172.07489 Z" opacity=".55" transform="translate(-1.9328e-3,0)"/><path id="path3553" fill="#fff" fill-opacity=".761" stroke="none" stroke-dasharray="none" stroke-miterlimit="4" stroke-opacity="1" stroke-width="1.5" d="m 172.53406,172.07489 a 39.59798,39.59798 0 0 1 -39.59798,39.59798 39.59798,39.59798 0 0 1 -39.59798,-39.59798 39.59798,39.59798 0 0 1 39.59798,-39.59798 39.59798,39.59798 0 0 1 39.59798,39.59798 z" opacity=".479" transform="matrix(0.6857754,0.3834829,-0.4749959,0.8494263,105.11994,-50.171047)"/><path id="path3555" fill="#fff" fill-opacity=".761" stroke="none" stroke-dasharray="none" stroke-miterlimit="4" stroke-opacity="1" stroke-width="1.5" d="m 172.53406,172.07489 a 39.59798,39.59798 0 0 1 -39.59798,39.59798 39.59798,39.59798 0 0 1 -39.59798,-39.59798 39.59798,39.59798 0 0 1 39.59798,-39.59798 39.59798,39.59798 0 0 1 39.59798,39.59798 z" opacity="1" transform="matrix(0.3328355,0.1861203,-0.2305354,0.4122621,104.42157,39.321787)"/></g><g id="g3559" transform="matrix(0.1977058,0,0,0.1977058,1180.0386,25.979794)"><path id="path3561" fill="url(#radialGradient3567)" fill-opacity="1" stroke="none" stroke-dasharray="none" stroke-miterlimit="4" stroke-opacity="1" stroke-width="1.5" d="M 214.96046,172.07489 A 73.539108,73.539108 0 0 1 141.42136,245.614 73.539108,73.539108 0 0 1 67.882248,172.07489 73.539108,73.539108 0 0 1 141.42136,98.535782 73.539108,73.539108 0 0 1 214.96046,172.07489 Z" opacity=".55" transform="translate(-1.9328e-3,0)"/><path id="path3563" fill="#fff" fill-opacity=".761" stroke="none" stroke-dasharray="none" stroke-miterlimit="4" stroke-opacity="1" stroke-width="1.5" d="m 172.53406,172.07489 a 39.59798,39.59798 0 0 1 -39.59798,39.59798 39.59798,39.59798 0 0 1 -39.59798,-39.59798 39.59798,39.59798 0 0 1 39.59798,-39.59798 39.59798,39.59798 0 0 1 39.59798,39.59798 z" opacity=".479" transform="matrix(0.6857754,0.3834829,-0.4749959,0.8494263,105.11994,-50.171047)"/><path id="path3565" fill="#fff" fill-opacity=".761" stroke="none" stroke-dasharray="none" stroke-miterlimit="4" stroke-opacity="1" stroke-width="1.5" d="m 172.53406,172.07489 a 39.59798,39.59798 0 0 1 -39.59798,39.59798 39.59798,39.59798 0 0 1 -39.59798,-39.59798 39.59798,39.59798 0 0 1 39.59798,-39.59798 39.59798,39.59798 0 0 1 39.59798,39.59798 z" opacity="1" transform="matrix(0.3328355,0.1861203,-0.2305354,0.4122621,104.42157,39.321787)"/></g><g id="g3569" transform="matrix(0.1977058,0,0,0.1977058,1384.0386,39.97979)"><path id="path3571" fill="url(#radialGradient3577)" fill-opacity="1" stroke="none" stroke-dasharray="none" stroke-miterlimit="4" stroke-opacity="1" stroke-width="1.5" d="M 214.96046,172.07489 A 73.539108,73.539108 0 0 1 141.42136,245.614 73.539108,73.539108 0 0 1 67.882248,172.07489 73.539108,73.539108 0 0 1 141.42136,98.535782 73.539108,73.539108 0 0 1 214.96046,172.07489 Z" opacity=".55" transform="translate(-1.9328e-3,0)"/><path id="path3573" fill="#fff" fill-opacity=".761" stroke="none" stroke-dasharray="none" stroke-miterlimit="4" stroke-opacity="1" stroke-width="1.5" d="m 172.53406,172.07489 a 39.59798,39.59798 0 0 1 -39.59798,39.59798 39.59798,39.59798 0 0 1 -39.59798,-39.59798 39.59798,39.59798 0 0 1 39.59798,-39.59798 39.59798,39.59798 0 0 1 39.59798,39.59798 z" opacity=".479" transform="matrix(0.6857754,0.3834829,-0.4749959,0.8494263,105.11994,-50.171047)"/><path id="path3575" fill="#fff" fill-opacity=".761" stroke="none" stroke-dasharray="none" stroke-miterlimit="4" stroke-opacity="1" stroke-width="1.5" d="m 172.53406,172.07489 a 39.59798,39.59798 0 0 1 -39.59798,39.59798 39.59798,39.59798 0 0 1 -39.59798,-39.59798 39.59798,39.59798 0 0 1 39.59798,-39.59798 39.59798,39.59798 0 0 1 39.59798,39.59798 z" opacity="1" transform="matrix(0.3328355,0.1861203,-0.2305354,0.4122621,104.42157,39.321787)"/></g><g id="g3579" opacity=".767" transform="matrix(0.1977058,0,0,0.1977058,1304.0386,185.97979)"><path id="path3581" fill="url(#radialGradient3587)" fill-opacity="1" stroke="none" stroke-dasharray="none" stroke-miterlimit="4" stroke-opacity="1" stroke-width="1.5" d="M 214.96046,172.07489 A 73.539108,73.539108 0 0 1 141.42136,245.614 73.539108,73.539108 0 0 1 67.882248,172.07489 73.539108,73.539108 0 0 1 141.42136,98.535782 73.539108,73.539108 0 0 1 214.96046,172.07489 Z" opacity=".55" transform="translate(-1.9328e-3,0)"/><path id="path3583" fill="#fff" fill-opacity=".761" stroke="none" stroke-dasharray="none" stroke-miterlimit="4" stroke-opacity="1" stroke-width="1.5" d="m 172.53406,172.07489 a 39.59798,39.59798 0 0 1 -39.59798,39.59798 39.59798,39.59798 0 0 1 -39.59798,-39.59798 39.59798,39.59798 0 0 1 39.59798,-39.59798 39.59798,39.59798 0 0 1 39.59798,39.59798 z" opacity=".479" transform="matrix(0.6857754,0.3834829,-0.4749959,0.8494263,105.11994,-50.171047)"/><path id="path3585" fill="#fff" fill-opacity=".761" stroke="none" stroke-dasharray="none" stroke-miterlimit="4" stroke-opacity="1" stroke-width="1.5" d="m 172.53406,172.07489 a 39.59798,39.59798 0 0 1 -39.59798,39.59798 39.59798,39.59798 0 0 1 -39.59798,-39.59798 39.59798,39.59798 0 0 1 39.59798,-39.59798 39.59798,39.59798 0 0 1 39.59798,39.59798 z" opacity="1" transform="matrix(0.3328355,0.1861203,-0.2305354,0.4122621,104.42157,39.321787)"/></g><g id="g3589" transform="matrix(0.1977058,0,0,0.1977058,1126.0386,279.97979)"><path id="path3591" fill="url(#radialGradient3597)" fill-opacity="1" stroke="none" stroke-dasharray="none" stroke-miterlimit="4" stroke-opacity="1" stroke-width="1.5" d="M 214.96046,172.07489 A 73.539108,73.539108 0 0 1 141.42136,245.614 73.539108,73.539108 0 0 1 67.882248,172.07489 73.539108,73.539108 0 0 1 141.42136,98.535782 73.539108,73.539108 0 0 1 214.96046,172.07489 Z" opacity=".55" transform="translate(-1.9328e-3,0)"/><path id="path3593" fill="#fff" fill-opacity=".761" stroke="none" stroke-dasharray="none" stroke-miterlimit="4" stroke-opacity="1" stroke-width="1.5" d="m 172.53406,172.07489 a 39.59798,39.59798 0 0 1 -39.59798,39.59798 39.59798,39.59798 0 0 1 -39.59798,-39.59798 39.59798,39.59798 0 0 1 39.59798,-39.59798 39.59798,39.59798 0 0 1 39.59798,39.59798 z" opacity=".479" transform="matrix(0.6857754,0.3834829,-0.4749959,0.8494263,105.11994,-50.171047)"/><path id="path3595" fill="#fff" fill-opacity=".761" stroke="none" stroke-dasharray="none" stroke-miterlimit="4" stroke-opacity="1" stroke-width="1.5" d="m 172.53406,172.07489 a 39.59798,39.59798 0 0 1 -39.59798,39.59798 39.59798,39.59798 0 0 1 -39.59798,-39.59798 39.59798,39.59798 0 0 1 39.59798,-39.59798 39.59798,39.59798 0 0 1 39.59798,39.59798 z" opacity="1" transform="matrix(0.3328355,0.1861203,-0.2305354,0.4122621,104.42157,39.321787)"/></g><g id="g3599" transform="matrix(0.1977058,0,0,0.1977058,1800.0386,431.9798)"><path id="path3601" fill="url(#radialGradient3607)" fill-opacity="1" stroke="none" stroke-dasharray="none" stroke-miterlimit="4" stroke-opacity="1" stroke-width="1.5" d="M 214.96046,172.07489 A 73.539108,73.539108 0 0 1 141.42136,245.614 73.539108,73.539108 0 0 1 67.882248,172.07489 73.539108,73.539108 0 0 1 141.42136,98.535782 73.539108,73.539108 0 0 1 214.96046,172.07489 Z" opacity=".55" transform="translate(-1.9328e-3,0)"/><path id="path3603" fill="#fff" fill-opacity=".761" stroke="none" stroke-dasharray="none" stroke-miterlimit="4" stroke-opacity="1" stroke-width="1.5" d="m 172.53406,172.07489 a 39.59798,39.59798 0 0 1 -39.59798,39.59798 39.59798,39.59798 0 0 1 -39.59798,-39.59798 39.59798,39.59798 0 0 1 39.59798,-39.59798 39.59798,39.59798 0 0 1 39.59798,39.59798 z" opacity=".479" transform="matrix(0.6857754,0.3834829,-0.4749959,0.8494263,105.11994,-50.171047)"/><path id="path3605" fill="#fff" fill-opacity=".761" stroke="none" stroke-dasharray="none" stroke-miterlimit="4" stroke-opacity="1" stroke-width="1.5" d="m 172.53406,172.07489 a 39.59798,39.59798 0 0 1 -39.59798,39.59798 39.59798,39.59798 0 0 1 -39.59798,-39.59798 39.59798,39.59798 0 0 1 39.59798,-39.59798 39.59798,39.59798 0 0 1 39.59798,39.59798 z" opacity="1" transform="matrix(0.3328355,0.1861203,-0.2305354,0.4122621,104.42157,39.321787)"/></g><g id="g3609" opacity=".723" transform="matrix(0.1977058,0,0,0.1977058,1698.0386,179.9798)"><path id="path3611" fill="url(#radialGradient3617)" fill-opacity="1" stroke="none" stroke-dasharray="none" stroke-miterlimit="4" stroke-opacity="1" stroke-width="1.5" d="M 214.96046,172.07489 A 73.539108,73.539108 0 0 1 141.42136,245.614 73.539108,73.539108 0 0 1 67.882248,172.07489 73.539108,73.539108 0 0 1 141.42136,98.535782 73.539108,73.539108 0 0 1 214.96046,172.07489 Z" opacity=".55" transform="translate(-1.9328e-3,0)"/><path id="path3613" fill="#fff" fill-opacity=".761" stroke="none" stroke-dasharray="none" stroke-miterlimit="4" stroke-opacity="1" stroke-width="1.5" d="m 172.53406,172.07489 a 39.59798,39.59798 0 0 1 -39.59798,39.59798 39.59798,39.59798 0 0 1 -39.59798,-39.59798 39.59798,39.59798 0 0 1 39.59798,-39.59798 39.59798,39.59798 0 0 1 39.59798,39.59798 z" opacity=".479" transform="matrix(0.6857754,0.3834829,-0.4749959,0.8494263,105.11994,-50.171047)"/><path id="path3615" fill="#fff" fill-opacity=".761" stroke="none" stroke-dasharray="none" stroke-miterlimit="4" stroke-opacity="1" stroke-width="1.5" d="m 172.53406,172.07489 a 39.59798,39.59798 0 0 1 -39.59798,39.59798 39.59798,39.59798 0 0 1 -39.59798,-39.59798 39.59798,39.59798 0 0 1 39.59798,-39.59798 39.59798,39.59798 0 0 1 39.59798,39.59798 z" opacity="1" transform="matrix(0.3328355,0.1861203,-0.2305354,0.4122621,104.42157,39.321787)"/></g><g id="g3619" transform="matrix(0.1977058,0,0,0.1977058,1568.0386,573.9798)"><path id="path3621" fill="url(#radialGradient3627)" fill-opacity="1" stroke="none" stroke-dasharray="none" stroke-miterlimit="4" stroke-opacity="1" stroke-width="1.5" d="M 214.96046,172.07489 A 73.539108,73.539108 0 0 1 141.42136,245.614 73.539108,73.539108 0 0 1 67.882248,172.07489 73.539108,73.539108 0 0 1 141.42136,98.535782 73.539108,73.539108 0 0 1 214.96046,172.07489 Z" opacity=".55" transform="translate(-1.9328e-3,0)"/><path id="path3623" fill="#fff" fill-opacity=".761" stroke="none" stroke-dasharray="none" stroke-miterlimit="4" stroke-opacity="1" stroke-width="1.5" d="m 172.53406,172.07489 a 39.59798,39.59798 0 0 1 -39.59798,39.59798 39.59798,39.59798 0 0 1 -39.59798,-39.59798 39.59798,39.59798 0 0 1 39.59798,-39.59798 39.59798,39.59798 0 0 1 39.59798,39.59798 z" opacity=".479" transform="matrix(0.6857754,0.3834829,-0.4749959,0.8494263,105.11994,-50.171047)"/><path id="path3625" fill="#fff" fill-opacity=".761" stroke="none" stroke-dasharray="none" stroke-miterlimit="4" stroke-opacity="1" stroke-width="1.5" d="m 172.53406,172.07489 a 39.59798,39.59798 0 0 1 -39.59798,39.59798 39.59798,39.59798 0 0 1 -39.59798,-39.59798 39.59798,39.59798 0 0 1 39.59798,-39.59798 39.59798,39.59798 0 0 1 39.59798,39.59798 z" opacity="1" transform="matrix(0.3328355,0.1861203,-0.2305354,0.4122621,104.42157,39.321787)"/></g><g id="g3629" transform="matrix(0.1977058,0,0,0.1977058,562.0386,563.9798)"><path id="path3631" fill="url(#radialGradient3637)" fill-opacity="1" stroke="none" stroke-dasharray="none" stroke-miterlimit="4" stroke-opacity="1" stroke-width="1.5" d="M 214.96046,172.07489 A 73.539108,73.539108 0 0 1 141.42136,245.614 73.539108,73.539108 0 0 1 67.882248,172.07489 73.539108,73.539108 0 0 1 141.42136,98.535782 73.539108,73.539108 0 0 1 214.96046,172.07489 Z" opacity=".55" transform="translate(-1.9328e-3,0)"/><path id="path3633" fill="#fff" fill-opacity=".761" stroke="none" stroke-dasharray="none" stroke-miterlimit="4" stroke-opacity="1" stroke-width="1.5" d="m 172.53406,172.07489 a 39.59798,39.59798 0 0 1 -39.59798,39.59798 39.59798,39.59798 0 0 1 -39.59798,-39.59798 39.59798,39.59798 0 0 1 39.59798,-39.59798 39.59798,39.59798 0 0 1 39.59798,39.59798 z" opacity=".479" transform="matrix(0.6857754,0.3834829,-0.4749959,0.8494263,105.11994,-50.171047)"/><path id="path3635" fill="#fff" fill-opacity=".761" stroke="none" stroke-dasharray="none" stroke-miterlimit="4" stroke-opacity="1" stroke-width="1.5" d="m 172.53406,172.07489 a 39.59798,39.59798 0 0 1 -39.59798,39.59798 39.59798,39.59798 0 0 1 -39.59798,-39.59798 39.59798,39.59798 0 0 1 39.59798,-39.59798 39.59798,39.59798 0 0 1 39.59798,39.59798 z" opacity="1" transform="matrix(0.3328355,0.1861203,-0.2305354,0.4122621,104.42157,39.321787)"/></g><g id="g3639" transform="matrix(0.1977058,0,0,0.1977058,-1.961373,549.9798)"><path id="path3641" fill="url(#radialGradient3647)" fill-opacity="1" stroke="none" stroke-dasharray="none" stroke-miterlimit="4" stroke-opacity="1" stroke-width="1.5" d="M 214.96046,172.07489 A 73.539108,73.539108 0 0 1 141.42136,245.614 73.539108,73.539108 0 0 1 67.882248,172.07489 73.539108,73.539108 0 0 1 141.42136,98.535782 73.539108,73.539108 0 0 1 214.96046,172.07489 Z" opacity=".55" transform="translate(-1.9328e-3,0)"/><path id="path3643" fill="#fff" fill-opacity=".761" stroke="none" stroke-dasharray="none" stroke-miterlimit="4" stroke-opacity="1" stroke-width="1.5" d="m 172.53406,172.07489 a 39.59798,39.59798 0 0 1 -39.59798,39.59798 39.59798,39.59798 0 0 1 -39.59798,-39.59798 39.59798,39.59798 0 0 1 39.59798,-39.59798 39.59798,39.59798 0 0 1 39.59798,39.59798 z" opacity=".479" transform="matrix(0.6857754,0.3834829,-0.4749959,0.8494263,105.11994,-50.171047)"/><path id="path3645" fill="#fff" fill-opacity=".761" stroke="none" stroke-dasharray="none" stroke-miterlimit="4" stroke-opacity="1" stroke-width="1.5" d="m 172.53406,172.07489 a 39.59798,39.59798 0 0 1 -39.59798,39.59798 39.59798,39.59798 0 0 1 -39.59798,-39.59798 39.59798,39.59798 0 0 1 39.59798,-39.59798 39.59798,39.59798 0 0 1 39.59798,39.59798 z" opacity="1" transform="matrix(0.3328355,0.1861203,-0.2305354,0.4122621,104.42157,39.321787)"/></g><g id="g3649" opacity=".696" transform="matrix(0.1977058,0,0,0.1977058,146.03863,435.9798)"><path id="path3651" fill="url(#radialGradient3657)" fill-opacity="1" stroke="none" stroke-dasharray="none" stroke-miterlimit="4" stroke-opacity="1" stroke-width="1.5" d="M 214.96046,172.07489 A 73.539108,73.539108 0 0 1 141.42136,245.614 73.539108,73.539108 0 0 1 67.882248,172.07489 73.539108,73.539108 0 0 1 141.42136,98.535782 73.539108,73.539108 0 0 1 214.96046,172.07489 Z" opacity=".55" transform="translate(-1.9328e-3,0)"/><path id="path3653" fill="#fff" fill-opacity=".761" stroke="none" stroke-dasharray="none" stroke-miterlimit="4" stroke-opacity="1" stroke-width="1.5" d="m 172.53406,172.07489 a 39.59798,39.59798 0 0 1 -39.59798,39.59798 39.59798,39.59798 0 0 1 -39.59798,-39.59798 39.59798,39.59798 0 0 1 39.59798,-39.59798 39.59798,39.59798 0 0 1 39.59798,39.59798 z" opacity=".479" transform="matrix(0.6857754,0.3834829,-0.4749959,0.8494263,105.11994,-50.171047)"/><path id="path3655" fill="#fff" fill-opacity=".761" stroke="none" stroke-dasharray="none" stroke-miterlimit="4" stroke-opacity="1" stroke-width="1.5" d="m 172.53406,172.07489 a 39.59798,39.59798 0 0 1 -39.59798,39.59798 39.59798,39.59798 0 0 1 -39.59798,-39.59798 39.59798,39.59798 0 0 1 39.59798,-39.59798 39.59798,39.59798 0 0 1 39.59798,39.59798 z" opacity="1" transform="matrix(0.3328355,0.1861203,-0.2305354,0.4122621,104.42157,39.321787)"/></g><g id="g2596" opacity=".662" transform="matrix(0.4424735,0,0,0.4424735,1591.4237,-40.138579)"><path id="path2598" fill="url(#radialGradient2604)" fill-opacity="1" stroke="none" stroke-dasharray="none" stroke-miterlimit="4" stroke-opacity="1" stroke-width="1.5" d="M 214.96046,172.07489 A 73.539108,73.539108 0 0 1 141.42136,245.614 73.539108,73.539108 0 0 1 67.882248,172.07489 73.539108,73.539108 0 0 1 141.42136,98.535782 73.539108,73.539108 0 0 1 214.96046,172.07489 Z" opacity=".55" transform="translate(-1.9328e-3,0)"/><path id="path2600" fill="#fff" fill-opacity=".761" stroke="none" stroke-dasharray="none" stroke-miterlimit="4" stroke-opacity="1" stroke-width="1.5" d="m 172.53406,172.07489 a 39.59798,39.59798 0 0 1 -39.59798,39.59798 39.59798,39.59798 0 0 1 -39.59798,-39.59798 39.59798,39.59798 0 0 1 39.59798,-39.59798 39.59798,39.59798 0 0 1 39.59798,39.59798 z" opacity=".479" transform="matrix(0.6857754,0.3834829,-0.4749959,0.8494263,105.11994,-50.171047)"/><path id="path2602" fill="#fff" fill-opacity=".761" stroke="none" stroke-dasharray="none" stroke-miterlimit="4" stroke-opacity="1" stroke-width="1.5" d="m 172.53406,172.07489 a 39.59798,39.59798 0 0 1 -39.59798,39.59798 39.59798,39.59798 0 0 1 -39.59798,-39.59798 39.59798,39.59798 0 0 1 39.59798,-39.59798 39.59798,39.59798 0 0 1 39.59798,39.59798 z" opacity="1" transform="matrix(0.3328355,0.1861203,-0.2305354,0.4122621,104.42157,39.321787)"/></g><g id="g2606" opacity=".662" transform="matrix(0.4424735,0,0,0.4424735,1195.4237,205.86142)"><path id="path2608" fill="url(#radialGradient2614)" fill-opacity="1" stroke="none" stroke-dasharray="none" stroke-miterlimit="4" stroke-opacity="1" stroke-width="1.5" d="M 214.96046,172.07489 A 73.539108,73.539108 0 0 1 141.42136,245.614 73.539108,73.539108 0 0 1 67.882248,172.07489 73.539108,73.539108 0 0 1 141.42136,98.535782 73.539108,73.539108 0 0 1 214.96046,172.07489 Z" opacity=".55" transform="translate(-1.9328e-3,0)"/><path id="path2610" fill="#fff" fill-opacity=".761" stroke="none" stroke-dasharray="none" stroke-miterlimit="4" stroke-opacity="1" stroke-width="1.5" d="m 172.53406,172.07489 a 39.59798,39.59798 0 0 1 -39.59798,39.59798 39.59798,39.59798 0 0 1 -39.59798,-39.59798 39.59798,39.59798 0 0 1 39.59798,-39.59798 39.59798,39.59798 0 0 1 39.59798,39.59798 z" opacity=".479" transform="matrix(0.6857754,0.3834829,-0.4749959,0.8494263,105.11994,-50.171047)"/><path id="path2612" fill="#fff" fill-opacity=".761" stroke="none" stroke-dasharray="none" stroke-miterlimit="4" stroke-opacity="1" stroke-width="1.5" d="m 172.53406,172.07489 a 39.59798,39.59798 0 0 1 -39.59798,39.59798 39.59798,39.59798 0 0 1 -39.59798,-39.59798 39.59798,39.59798 0 0 1 39.59798,-39.59798 39.59798,39.59798 0 0 1 39.59798,39.59798 z" opacity="1" transform="matrix(0.3328355,0.1861203,-0.2305354,0.4122621,104.42157,39.321787)"/></g><g id="g2616" opacity=".662" transform="matrix(0.4424735,0,0,0.4424735,1793.4237,149.86142)"><path id="path2618" fill="url(#radialGradient2624)" fill-opacity="1" stroke="none" stroke-dasharray="none" stroke-miterlimit="4" stroke-opacity="1" stroke-width="1.5" d="M 214.96046,172.07489 A 73.539108,73.539108 0 0 1 141.42136,245.614 73.539108,73.539108 0 0 1 67.882248,172.07489 73.539108,73.539108 0 0 1 141.42136,98.535782 73.539108,73.539108 0 0 1 214.96046,172.07489 Z" opacity=".55" transform="translate(-1.9328e-3,0)"/><path id="path2620" fill="#fff" fill-opacity=".761" stroke="none" stroke-dasharray="none" stroke-miterlimit="4" stroke-opacity="1" stroke-width="1.5" d="m 172.53406,172.07489 a 39.59798,39.59798 0 0 1 -39.59798,39.59798 39.59798,39.59798 0 0 1 -39.59798,-39.59798 39.59798,39.59798 0 0 1 39.59798,-39.59798 39.59798,39.59798 0 0 1 39.59798,39.59798 z" opacity=".479" transform="matrix(0.6857754,0.3834829,-0.4749959,0.8494263,105.11994,-50.171047)"/><path id="path2622" fill="#fff" fill-opacity=".761" stroke="none" stroke-dasharray="none" stroke-miterlimit="4" stroke-opacity="1" stroke-width="1.5" d="m 172.53406,172.07489 a 39.59798,39.59798 0 0 1 -39.59798,39.59798 39.59798,39.59798 0 0 1 -39.59798,-39.59798 39.59798,39.59798 0 0 1 39.59798,-39.59798 39.59798,39.59798 0 0 1 39.59798,39.59798 z" opacity="1" transform="matrix(0.3328355,0.1861203,-0.2305354,0.4122621,104.42157,39.321787)"/></g></g></svg>