<svg xmlns="http://www.w3.org/2000/svg" xmlns:xlink="http://www.w3.org/1999/xlink" id="svg3272" width="16" height="16" version="1.0"><defs id="defs3274"><linearGradient id="linearGradient2847" x1="25.132" x2="25.132" y1="6.729" y2="47.013" gradientTransform="matrix(.28585 0 0 .28899 3.6396 3.0645)" gradientUnits="userSpaceOnUse"><stop id="stop2906" offset="0" stop-color="#f4f4f4"/><stop id="stop2908" offset="1" stop-color="#dbdbdb"/></linearGradient><linearGradient id="linearGradient2681" x1="33.877" x2="44.119" y1="19.948" y2="30.191" gradientTransform="matrix(0 .4 .4 0 -1.9 -2.7)" gradientUnits="userSpaceOnUse"><stop id="stop3414" offset="0" stop-color="#fcfcfc"/><stop id="stop3416" offset="1" stop-color="#cbcdd9"/></linearGradient><linearGradient id="linearGradient2842" x1="17.289" x2="15.18" y1="2.185" y2="5.822" gradientTransform="matrix(.54796 0 0 .68246 3.7211 5.1564)" gradientUnits="userSpaceOnUse"><stop id="stop2918" offset="0" stop-color="#8f8f8f"/><stop id="stop2920" offset="1" stop-color="#afafaf"/></linearGradient><linearGradient id="linearGradient2840" x1="32.892" x2="36.358" y1="8.059" y2="5.457" gradientTransform="matrix(.29679 0 0 .35508 3.2059 4.9504)" gradientUnits="userSpaceOnUse"><stop id="stop2912" offset="0" stop-color="#fefefe"/><stop id="stop2914" offset="1" stop-color="#cbcbcb"/></linearGradient><linearGradient id="linearGradient2687" x1="18.031" x2="20.055" y1="16.408" y2="24.628" gradientTransform="matrix(.29669 0 0 .35207 1.8805 2.1186)" gradientUnits="userSpaceOnUse"><stop id="stop2687" offset="0" stop-color="#fff" stop-opacity=".275"/><stop id="stop2689" offset="1" stop-color="#fff" stop-opacity=".078"/></linearGradient><linearGradient id="linearGradient2692" x1="10.318" x2="4.176" y1="14.993" y2="4.051" gradientTransform="matrix(1.0083 0 0 1.0006 -.00082398 -.0066205)" gradientUnits="userSpaceOnUse"><stop id="stop3624" offset="0" stop-color="#bb2b12"/><stop id="stop3626" offset="1" stop-color="#cd7233"/></linearGradient><linearGradient id="linearGradient2690" x1="126.7" x2="169.23" y1="58.583" y2="238.4" gradientTransform="matrix(.054893 .013851 .0025726 .052482 -.71280 -.26741)" gradientUnits="userSpaceOnUse"><stop id="stop3618" offset="0" stop-color="#edb763"/><stop id="stop3270" offset=".5" stop-color="#de7f32"/><stop id="stop3620" offset="1" stop-color="#d24413"/></linearGradient><radialGradient id="radialGradient2677" cx="605.71" cy="486.65" r="117.14" gradientTransform="matrix(-2.7744 0 0 1.9697 112.76 -872.89)" gradientUnits="userSpaceOnUse" xlink:href="#linearGradient5060"/><radialGradient id="radialGradient2675" cx="605.71" cy="486.65" r="117.14" gradientTransform="matrix(2.7744 0 0 1.9697 -1891.6 -872.89)" gradientUnits="userSpaceOnUse" xlink:href="#linearGradient5060"/><linearGradient id="linearGradient2673" x1="302.86" x2="302.86" y1="366.65" y2="609.51" gradientTransform="matrix(2.7744 0 0 1.9697 -1892.2 -872.89)" gradientUnits="userSpaceOnUse"><stop id="stop5050" offset="0" stop-opacity="0"/><stop id="stop5056" offset=".5"/><stop id="stop5052" offset="1" stop-opacity="0"/></linearGradient><linearGradient id="linearGradient5060"><stop id="stop5062" offset="0"/><stop id="stop5064" offset="1" stop-opacity="0"/></linearGradient></defs><g id="layer1"><g id="layer6" transform="matrix(.36395 0 0 .34457 -.64485 -.38545)"><g id="g2488" transform="matrix(.021652 0 0 .014857 43.008 42.685)"><rect id="rect2490" width="1339.6" height="478.36" x="-1559.3" y="-150.7" fill="url(#linearGradient2673)" opacity=".402"/><path id="path2492" fill="url(#radialGradient2675)" d="m-219.62-150.68v478.33c142.88 0.9 345.4-107.17 345.4-239.2 0-132.02-159.44-239.13-345.4-239.13z" opacity=".402"/><path id="path2494" fill="url(#radialGradient2677)" d="m-1559.3-150.68v478.33c-142.8 0.9-345.4-107.17-345.4-239.2 0-132.02 159.5-239.13 345.4-239.13z" opacity=".402"/></g></g><path id="rect2196" fill="#fff" stroke="#a8a8a8" stroke-linecap="round" stroke-linejoin="round" stroke-width=".979" d="m0.6015 1.5215c-0.05626 0-0.10449 0.0603-0.10449 0.1226 0 4.6046 0.00337 8.6509-0.00066 12.857 4.7064-0.024 9.4152-0.048 14.123-0.065-0.417 0-1.112-0.07-1.103-0.941 0.004-3.5967 0.023-7.408 0.011-10.98l-6.0517-0.0005c-0.4775 0-1.0962-0.993-1.5261-0.993h-5.3477z"/><path id="rect3086" fill="url(#linearGradient2690)" stroke="url(#linearGradient2692)" stroke-linecap="round" stroke-linejoin="round" stroke-width=".953" d="m2.5254 4.524c0.6564 0 12.48 0.0314 12.989 0.0314 0 0.6154-0.024 9.9576-0.054 9.9576-4.559 0.018-11.659-0.013-12.986-0.013-0.0005-1.162 0.0514-7.5857 0.0514-9.976z"/><path id="path2509" fill="url(#linearGradient2687)" fill-rule="evenodd" d="m2.8355 4c-0.4566 0-0.8345 0.4484-0.8345 0.9902v5.6328c0.0018 0.101 0.0441 0.216 0.1113 0.286 0.0672 0.071 0.1531 0.1 0.2503 0.088h0.0093l13.351-2.5081c0.155-0.029 0.276-0.1881 0.278-0.3741v-3.1246c0-0.5418-0.378-0.9902-0.834-0.9902h-12.332 0.0005z"/><path id="path2406" fill="none" stroke="#fff" stroke-width="1" d="m3.499 14v-8.5h11.5" opacity=".35"/></g><path id="rect2594" fill="url(#linearGradient2847)" stroke="#999" stroke-linejoin="round" stroke-width=".995" d="m6.5 5.5h5.213c0.402 0.1403 3.225 3.0915 3.789 4.198v5.804h-9.002v-10.002z"/><path id="path3410" fill="url(#linearGradient2681)" fill-rule="evenodd" stroke="#83899a" stroke-width="1" d="m5.5 9.5l6 6h-6v-6zm1.5 4h1-1z" opacity=".8"/><text id="text2767" x="8.503" y="13.839" fill="#9a9eac" font-family="Bitstream Vera Sans" font-size="8.684" opacity=".8" transform="scale(.99725 1.0028)" xml:space="preserve"><tspan id="tspan2769" x="8.503" y="13.839">a</tspan></text><path id="path12038" fill="url(#linearGradient2840)" fill-rule="evenodd" stroke="url(#linearGradient2842)" stroke-linejoin="round" stroke-width=".995" d="m11.498 5.4976v4.0048h4.004c0-1.9031-2.406-4.0048-4.004-4.0048z"/></svg>