<svg xmlns="http://www.w3.org/2000/svg" id="svg2822" width="16" height="16" version="1.1"><g id="layer1" transform="translate(-3.0004 3.0004)"><path id="path3631" fill="none" stroke="#606060" stroke-width="1.5" d="m14.52 8.5654-1.52-1.5654m0-4 1.478-1.4782m-7.0279 7.0436 1.5499-1.5654m0-4-1.5139-1.5141m3.5139 1.0141v-2.5m0 10v-2.5m5-2.5h-2.5m-5 0h-2.5"/><rect id="rect3633" width="15" height="14.912" x="-12.5" y="3.544" fill="none" stroke="#606060" stroke-linecap="square" rx="1.813" ry="1.213" transform="rotate(-90)"/><rect id="rect2827" width="13.058" height="14.803" x="-11.58" y="3.61" fill="none" stroke="#606060" stroke-linecap="square" stroke-width="1" opacity=".4" rx=".812" ry=".362" transform="rotate(-90)"/></g><path id="path2843-4" fill="none" stroke="#606060" stroke-linejoin="round" stroke-width="2" d="m10.5 8.0014a2.5 2.5 0 0 1 -5 0 2.5 2.5 0 1 1 5 0z"/></svg>